%TF.GenerationSoftware,KiCad,Pcbnew,8.0.3*%
%TF.CreationDate,2024-06-30T11:32:45+09:00*%
%TF.ProjectId,gamepad_attiny85,67616d65-7061-4645-9f61-7474696e7938,rev?*%
%TF.SameCoordinates,Original*%
%TF.FileFunction,Soldermask,Bot*%
%TF.FilePolarity,Negative*%
%FSLAX46Y46*%
G04 Gerber Fmt 4.6, Leading zero omitted, Abs format (unit mm)*
G04 Created by KiCad (PCBNEW 8.0.3) date 2024-06-30 11:32:45*
%MOMM*%
%LPD*%
G01*
G04 APERTURE LIST*
G04 Aperture macros list*
%AMRoundRect*
0 Rectangle with rounded corners*
0 $1 Rounding radius*
0 $2 $3 $4 $5 $6 $7 $8 $9 X,Y pos of 4 corners*
0 Add a 4 corners polygon primitive as box body*
4,1,4,$2,$3,$4,$5,$6,$7,$8,$9,$2,$3,0*
0 Add four circle primitives for the rounded corners*
1,1,$1+$1,$2,$3*
1,1,$1+$1,$4,$5*
1,1,$1+$1,$6,$7*
1,1,$1+$1,$8,$9*
0 Add four rect primitives between the rounded corners*
20,1,$1+$1,$2,$3,$4,$5,0*
20,1,$1+$1,$4,$5,$6,$7,0*
20,1,$1+$1,$6,$7,$8,$9,0*
20,1,$1+$1,$8,$9,$2,$3,0*%
G04 Aperture macros list end*
%ADD10C,2.200000*%
%ADD11C,1.600000*%
%ADD12O,1.600000X1.600000*%
%ADD13RoundRect,0.200000X1.100000X1.550000X-1.100000X1.550000X-1.100000X-1.550000X1.100000X-1.550000X0*%
%ADD14C,2.000000*%
%ADD15R,1.800000X1.800000*%
%ADD16C,1.800000*%
%ADD17R,1.600000X1.600000*%
%ADD18R,2.000000X2.000000*%
%ADD19R,1.700000X1.700000*%
%ADD20O,1.700000X1.700000*%
%ADD21O,1.500000X2.500000*%
%ADD22R,1.500000X2.500000*%
%ADD23O,2.200000X3.500000*%
%ADD24O,1.600000X2.000000*%
G04 APERTURE END LIST*
D10*
%TO.C,REF\u002A\u002A*%
X25400000Y-20320000D03*
%TD*%
%TO.C,REF\u002A\u002A*%
X104140000Y-20320000D03*
%TD*%
%TO.C,REF\u002A\u002A*%
X104140000Y-60960000D03*
%TD*%
%TO.C,REF\u002A\u002A*%
X25400000Y-60960000D03*
%TD*%
D11*
%TO.C,R7*%
X31750000Y-58420000D03*
D12*
X39370000Y-58420000D03*
%TD*%
D11*
%TO.C,R6*%
X95250000Y-55880000D03*
D12*
X102870000Y-55880000D03*
%TD*%
D11*
%TO.C,R5*%
X43180000Y-58420000D03*
D12*
X50800000Y-58420000D03*
%TD*%
D11*
%TO.C,R4*%
X83820000Y-55880000D03*
D12*
X91440000Y-55880000D03*
%TD*%
D11*
%TO.C,R3*%
X43180000Y-53340000D03*
D12*
X50800000Y-53340000D03*
%TD*%
D11*
%TO.C,R2*%
X95250000Y-50800000D03*
D12*
X102870000Y-50800000D03*
%TD*%
D13*
%TO.C,BT1*%
X83280000Y-45720000D03*
X53880000Y-45720000D03*
%TD*%
D14*
%TO.C,SW3*%
X26520000Y-40930000D03*
X33020000Y-40930000D03*
X26520000Y-45430000D03*
X33020000Y-45430000D03*
%TD*%
%TO.C,SW1*%
X32310000Y-33310000D03*
X38810000Y-33310000D03*
X32310000Y-37810000D03*
X38810000Y-37810000D03*
%TD*%
%TO.C,SW2*%
X32310000Y-48550000D03*
X38810000Y-48550000D03*
X32310000Y-53050000D03*
X38810000Y-53050000D03*
%TD*%
D15*
%TO.C,D1*%
X83820000Y-25400000D03*
D16*
X86360000Y-25400000D03*
%TD*%
D17*
%TO.C,Attiny85*%
X41920000Y-29200000D03*
D12*
X44460000Y-29200000D03*
X47000000Y-29200000D03*
X49540000Y-29200000D03*
X49540000Y-21580000D03*
X47000000Y-21580000D03*
X44460000Y-21580000D03*
X41920000Y-21580000D03*
%TD*%
D18*
%TO.C,BZ1*%
X92720000Y-25400000D03*
D14*
X100320000Y-25400000D03*
%TD*%
%TO.C,SW5*%
X38100000Y-40930000D03*
X44600000Y-40930000D03*
X38100000Y-45430000D03*
X44600000Y-45430000D03*
%TD*%
D19*
%TO.C,J2*%
X27940000Y-27940000D03*
D20*
X27940000Y-25400000D03*
X30480000Y-27940000D03*
X30480000Y-25400000D03*
X33020000Y-27940000D03*
X33020000Y-25400000D03*
%TD*%
D21*
%TO.C,POWER1*%
X69020000Y-60960000D03*
X67020000Y-60960000D03*
D22*
X65020000Y-60960000D03*
D23*
X71120000Y-60960000D03*
X62920000Y-60960000D03*
%TD*%
D14*
%TO.C,SW7*%
X95100000Y-40640000D03*
X101600000Y-40640000D03*
X95100000Y-45140000D03*
X101600000Y-45140000D03*
%TD*%
D24*
%TO.C,SSD1306*%
X63500000Y-30480000D03*
X66040000Y-30480000D03*
X68580000Y-30480000D03*
X71120000Y-30480000D03*
%TD*%
D11*
%TO.C,33K1*%
X83820000Y-50800000D03*
D12*
X91440000Y-50800000D03*
%TD*%
M02*
