M48
; DRILL file {KiCad 8.0.3} date 2024-06-30T11:33:59+0900
; FORMAT={-:-/ absolute / inch / decimal}
; #@! TF.CreationDate,2024-06-30T11:33:59+09:00
; #@! TF.GenerationSoftware,Kicad,Pcbnew,8.0.3
; #@! TF.FileFunction,Plated,1,2,PTH
FMAT,2
INCH
; #@! TA.AperFunction,Plated,PTH,ComponentDrill
T1C0.0315
; #@! TA.AperFunction,Plated,PTH,ComponentDrill
T2C0.0354
; #@! TA.AperFunction,Plated,PTH,ComponentDrill
T3C0.0394
; #@! TA.AperFunction,Plated,PTH,ComponentDrill
T4C0.0433
; #@! TA.AperFunction,Plated,PTH,ComponentDrill
T5C0.0591
%
G90
G05
T1
X1.25Y-2.3
X1.55Y-2.3
X1.6504Y-0.8496
X1.6504Y-1.1496
X1.7Y-2.1
X1.7Y-2.3
X1.7504Y-0.8496
X1.7504Y-1.1496
X1.8504Y-0.8496
X1.8504Y-1.1496
X1.9504Y-0.8496
X1.9504Y-1.1496
X2.0Y-2.1
X2.0Y-2.3
X3.3Y-2.0
X3.3Y-2.2
X3.6Y-2.0
X3.6Y-2.2
X3.75Y-2.0
X3.75Y-2.2
X4.05Y-2.0
X4.05Y-2.2
T2
X2.5598Y-2.4
X2.6386Y-2.4
X2.7173Y-2.4
X3.3Y-1.0
X3.4Y-1.0
T3
X1.1Y-1.0
X1.1Y-1.1
X1.2Y-1.0
X1.2Y-1.1
X1.3Y-1.0
X1.3Y-1.1
X2.5Y-1.2
X2.6Y-1.2
X2.7Y-1.2
X2.8Y-1.2
X3.6504Y-1.0
X3.9496Y-1.0
T4
X1.0441Y-1.6114
X1.0441Y-1.7886
X1.272Y-1.3114
X1.272Y-1.4886
X1.272Y-1.9114
X1.272Y-2.0886
X1.3Y-1.6114
X1.3Y-1.7886
X1.5Y-1.6114
X1.5Y-1.7886
X1.528Y-1.3114
X1.528Y-1.4886
X1.528Y-1.9114
X1.528Y-2.0886
X1.7559Y-1.6114
X1.7559Y-1.7886
X3.7441Y-1.6
X3.7441Y-1.7772
X4.0Y-1.6
X4.0Y-1.7772
T5
X2.4772Y-2.4
X2.8Y-2.4
M30
