%TF.GenerationSoftware,KiCad,Pcbnew,8.0.3*%
%TF.CreationDate,2024-06-30T11:32:45+09:00*%
%TF.ProjectId,gamepad_attiny85,67616d65-7061-4645-9f61-7474696e7938,rev?*%
%TF.SameCoordinates,Original*%
%TF.FileFunction,Soldermask,Top*%
%TF.FilePolarity,Negative*%
%FSLAX46Y46*%
G04 Gerber Fmt 4.6, Leading zero omitted, Abs format (unit mm)*
G04 Created by KiCad (PCBNEW 8.0.3) date 2024-06-30 11:32:45*
%MOMM*%
%LPD*%
G01*
G04 APERTURE LIST*
%ADD10C,2.200000*%
%ADD11C,1.600000*%
%ADD12O,1.600000X1.600000*%
%ADD13C,2.000000*%
%ADD14R,1.800000X1.800000*%
%ADD15C,1.800000*%
%ADD16R,1.600000X1.600000*%
%ADD17R,2.000000X2.000000*%
%ADD18R,1.700000X1.700000*%
%ADD19O,1.700000X1.700000*%
%ADD20O,1.500000X2.500000*%
%ADD21R,1.500000X2.500000*%
%ADD22O,2.200000X3.500000*%
%ADD23O,1.600000X2.000000*%
G04 APERTURE END LIST*
D10*
%TO.C,REF\u002A\u002A*%
X25400000Y-20320000D03*
%TD*%
%TO.C,REF\u002A\u002A*%
X104140000Y-20320000D03*
%TD*%
%TO.C,REF\u002A\u002A*%
X104140000Y-60960000D03*
%TD*%
%TO.C,REF\u002A\u002A*%
X25400000Y-60960000D03*
%TD*%
D11*
%TO.C,R7*%
X31750000Y-58420000D03*
D12*
X39370000Y-58420000D03*
%TD*%
D11*
%TO.C,R6*%
X95250000Y-55880000D03*
D12*
X102870000Y-55880000D03*
%TD*%
D11*
%TO.C,R5*%
X43180000Y-58420000D03*
D12*
X50800000Y-58420000D03*
%TD*%
D11*
%TO.C,R4*%
X83820000Y-55880000D03*
D12*
X91440000Y-55880000D03*
%TD*%
D11*
%TO.C,R3*%
X43180000Y-53340000D03*
D12*
X50800000Y-53340000D03*
%TD*%
D11*
%TO.C,R2*%
X95250000Y-50800000D03*
D12*
X102870000Y-50800000D03*
%TD*%
D13*
%TO.C,SW3*%
X26520000Y-40930000D03*
X33020000Y-40930000D03*
X26520000Y-45430000D03*
X33020000Y-45430000D03*
%TD*%
%TO.C,SW1*%
X32310000Y-33310000D03*
X38810000Y-33310000D03*
X32310000Y-37810000D03*
X38810000Y-37810000D03*
%TD*%
%TO.C,SW2*%
X32310000Y-48550000D03*
X38810000Y-48550000D03*
X32310000Y-53050000D03*
X38810000Y-53050000D03*
%TD*%
D14*
%TO.C,D1*%
X83820000Y-25400000D03*
D15*
X86360000Y-25400000D03*
%TD*%
D16*
%TO.C,Attiny85*%
X41920000Y-29200000D03*
D12*
X44460000Y-29200000D03*
X47000000Y-29200000D03*
X49540000Y-29200000D03*
X49540000Y-21580000D03*
X47000000Y-21580000D03*
X44460000Y-21580000D03*
X41920000Y-21580000D03*
%TD*%
D17*
%TO.C,BZ1*%
X92720000Y-25400000D03*
D13*
X100320000Y-25400000D03*
%TD*%
%TO.C,SW5*%
X38100000Y-40930000D03*
X44600000Y-40930000D03*
X38100000Y-45430000D03*
X44600000Y-45430000D03*
%TD*%
D18*
%TO.C,J2*%
X27940000Y-27940000D03*
D19*
X27940000Y-25400000D03*
X30480000Y-27940000D03*
X30480000Y-25400000D03*
X33020000Y-27940000D03*
X33020000Y-25400000D03*
%TD*%
D20*
%TO.C,POWER1*%
X69020000Y-60960000D03*
X67020000Y-60960000D03*
D21*
X65020000Y-60960000D03*
D22*
X71120000Y-60960000D03*
X62920000Y-60960000D03*
%TD*%
D13*
%TO.C,SW7*%
X95100000Y-40640000D03*
X101600000Y-40640000D03*
X95100000Y-45140000D03*
X101600000Y-45140000D03*
%TD*%
D23*
%TO.C,SSD1306*%
X63500000Y-30480000D03*
X66040000Y-30480000D03*
X68580000Y-30480000D03*
X71120000Y-30480000D03*
%TD*%
D11*
%TO.C,33K1*%
X83820000Y-50800000D03*
D12*
X91440000Y-50800000D03*
%TD*%
M02*
