%TF.GenerationSoftware,KiCad,Pcbnew,8.0.3*%
%TF.CreationDate,2024-06-30T11:34:02+09:00*%
%TF.ProjectId,gamepad_attiny85,67616d65-7061-4645-9f61-7474696e7938,rev?*%
%TF.SameCoordinates,Original*%
%TF.FileFunction,Drillmap*%
%TF.FilePolarity,Positive*%
%FSLAX45Y45*%
G04 Gerber Fmt 4.5, Leading zero omitted, Abs format (unit mm)*
G04 Created by KiCad (PCBNEW 8.0.3) date 2024-06-30 11:34:02*
%MOMM*%
%LPD*%
G01*
G04 APERTURE LIST*
%ADD10C,0.100000*%
%ADD11C,0.200000*%
%ADD12C,0.220000*%
G04 APERTURE END LIST*
D10*
X10668000Y-2032000D02*
X10668000Y-6096000D01*
X2540000Y-1778000D02*
X10414000Y-1778000D01*
X2286000Y-6096000D02*
X2286000Y-2032000D01*
X10414000Y-6350000D02*
X2540000Y-6350000D01*
X10668000Y-6096000D02*
G75*
G02*
X10414000Y-6350000I-254000J0D01*
G01*
X10414000Y-1778000D02*
G75*
G02*
X10668000Y-2032000I0J-254000D01*
G01*
X2286000Y-2032000D02*
G75*
G02*
X2540000Y-1778000I254000J0D01*
G01*
X2540000Y-6350000D02*
G75*
G02*
X2286000Y-6096000I0J254000D01*
G01*
D11*
D12*
X2430000Y-1922000D02*
X2650000Y-2142000D01*
X2650000Y-1922000D02*
X2430000Y-2142000D01*
X2430000Y-5986000D02*
X2650000Y-6206000D01*
X2650000Y-5986000D02*
X2430000Y-6206000D01*
X10304000Y-1922000D02*
X10524000Y-2142000D01*
X10524000Y-1922000D02*
X10304000Y-2142000D01*
X10304000Y-5986000D02*
X10524000Y-6206000D01*
X10524000Y-5986000D02*
X10304000Y-6206000D01*
D11*
X2541777Y-6666484D02*
X2541777Y-6466484D01*
X2541777Y-6466484D02*
X2589396Y-6466484D01*
X2589396Y-6466484D02*
X2617967Y-6476008D01*
X2617967Y-6476008D02*
X2637015Y-6495055D01*
X2637015Y-6495055D02*
X2646539Y-6514103D01*
X2646539Y-6514103D02*
X2656063Y-6552198D01*
X2656063Y-6552198D02*
X2656063Y-6580769D01*
X2656063Y-6580769D02*
X2646539Y-6618865D01*
X2646539Y-6618865D02*
X2637015Y-6637912D01*
X2637015Y-6637912D02*
X2617967Y-6656960D01*
X2617967Y-6656960D02*
X2589396Y-6666484D01*
X2589396Y-6666484D02*
X2541777Y-6666484D01*
X2741777Y-6666484D02*
X2741777Y-6533150D01*
X2741777Y-6571246D02*
X2751301Y-6552198D01*
X2751301Y-6552198D02*
X2760824Y-6542674D01*
X2760824Y-6542674D02*
X2779872Y-6533150D01*
X2779872Y-6533150D02*
X2798920Y-6533150D01*
X2865586Y-6666484D02*
X2865586Y-6533150D01*
X2865586Y-6466484D02*
X2856062Y-6476008D01*
X2856062Y-6476008D02*
X2865586Y-6485531D01*
X2865586Y-6485531D02*
X2875110Y-6476008D01*
X2875110Y-6476008D02*
X2865586Y-6466484D01*
X2865586Y-6466484D02*
X2865586Y-6485531D01*
X2989396Y-6666484D02*
X2970348Y-6656960D01*
X2970348Y-6656960D02*
X2960824Y-6637912D01*
X2960824Y-6637912D02*
X2960824Y-6466484D01*
X3094158Y-6666484D02*
X3075110Y-6656960D01*
X3075110Y-6656960D02*
X3065586Y-6637912D01*
X3065586Y-6637912D02*
X3065586Y-6466484D01*
X3322729Y-6666484D02*
X3322729Y-6466484D01*
X3322729Y-6466484D02*
X3389396Y-6609341D01*
X3389396Y-6609341D02*
X3456062Y-6466484D01*
X3456062Y-6466484D02*
X3456062Y-6666484D01*
X3637015Y-6666484D02*
X3637015Y-6561722D01*
X3637015Y-6561722D02*
X3627491Y-6542674D01*
X3627491Y-6542674D02*
X3608443Y-6533150D01*
X3608443Y-6533150D02*
X3570348Y-6533150D01*
X3570348Y-6533150D02*
X3551301Y-6542674D01*
X3637015Y-6656960D02*
X3617967Y-6666484D01*
X3617967Y-6666484D02*
X3570348Y-6666484D01*
X3570348Y-6666484D02*
X3551301Y-6656960D01*
X3551301Y-6656960D02*
X3541777Y-6637912D01*
X3541777Y-6637912D02*
X3541777Y-6618865D01*
X3541777Y-6618865D02*
X3551301Y-6599817D01*
X3551301Y-6599817D02*
X3570348Y-6590293D01*
X3570348Y-6590293D02*
X3617967Y-6590293D01*
X3617967Y-6590293D02*
X3637015Y-6580769D01*
X3732253Y-6533150D02*
X3732253Y-6733150D01*
X3732253Y-6542674D02*
X3751301Y-6533150D01*
X3751301Y-6533150D02*
X3789396Y-6533150D01*
X3789396Y-6533150D02*
X3808443Y-6542674D01*
X3808443Y-6542674D02*
X3817967Y-6552198D01*
X3817967Y-6552198D02*
X3827491Y-6571246D01*
X3827491Y-6571246D02*
X3827491Y-6628388D01*
X3827491Y-6628388D02*
X3817967Y-6647436D01*
X3817967Y-6647436D02*
X3808443Y-6656960D01*
X3808443Y-6656960D02*
X3789396Y-6666484D01*
X3789396Y-6666484D02*
X3751301Y-6666484D01*
X3751301Y-6666484D02*
X3732253Y-6656960D01*
X3913205Y-6647436D02*
X3922729Y-6656960D01*
X3922729Y-6656960D02*
X3913205Y-6666484D01*
X3913205Y-6666484D02*
X3903682Y-6656960D01*
X3903682Y-6656960D02*
X3913205Y-6647436D01*
X3913205Y-6647436D02*
X3913205Y-6666484D01*
X3913205Y-6542674D02*
X3922729Y-6552198D01*
X3922729Y-6552198D02*
X3913205Y-6561722D01*
X3913205Y-6561722D02*
X3903682Y-6552198D01*
X3903682Y-6552198D02*
X3913205Y-6542674D01*
X3913205Y-6542674D02*
X3913205Y-6561722D01*
X2081000Y-6895000D02*
X2281000Y-7095000D01*
X2281000Y-6895000D02*
X2081000Y-7095000D01*
X2532253Y-6905531D02*
X2541777Y-6896008D01*
X2541777Y-6896008D02*
X2560824Y-6886484D01*
X2560824Y-6886484D02*
X2608444Y-6886484D01*
X2608444Y-6886484D02*
X2627491Y-6896008D01*
X2627491Y-6896008D02*
X2637015Y-6905531D01*
X2637015Y-6905531D02*
X2646539Y-6924579D01*
X2646539Y-6924579D02*
X2646539Y-6943627D01*
X2646539Y-6943627D02*
X2637015Y-6972198D01*
X2637015Y-6972198D02*
X2522729Y-7086484D01*
X2522729Y-7086484D02*
X2646539Y-7086484D01*
X2732253Y-7067436D02*
X2741777Y-7076960D01*
X2741777Y-7076960D02*
X2732253Y-7086484D01*
X2732253Y-7086484D02*
X2722729Y-7076960D01*
X2722729Y-7076960D02*
X2732253Y-7067436D01*
X2732253Y-7067436D02*
X2732253Y-7086484D01*
X2817967Y-6905531D02*
X2827491Y-6896008D01*
X2827491Y-6896008D02*
X2846539Y-6886484D01*
X2846539Y-6886484D02*
X2894158Y-6886484D01*
X2894158Y-6886484D02*
X2913205Y-6896008D01*
X2913205Y-6896008D02*
X2922729Y-6905531D01*
X2922729Y-6905531D02*
X2932253Y-6924579D01*
X2932253Y-6924579D02*
X2932253Y-6943627D01*
X2932253Y-6943627D02*
X2922729Y-6972198D01*
X2922729Y-6972198D02*
X2808443Y-7086484D01*
X2808443Y-7086484D02*
X2932253Y-7086484D01*
X3056062Y-6886484D02*
X3075110Y-6886484D01*
X3075110Y-6886484D02*
X3094158Y-6896008D01*
X3094158Y-6896008D02*
X3103682Y-6905531D01*
X3103682Y-6905531D02*
X3113205Y-6924579D01*
X3113205Y-6924579D02*
X3122729Y-6962674D01*
X3122729Y-6962674D02*
X3122729Y-7010293D01*
X3122729Y-7010293D02*
X3113205Y-7048388D01*
X3113205Y-7048388D02*
X3103682Y-7067436D01*
X3103682Y-7067436D02*
X3094158Y-7076960D01*
X3094158Y-7076960D02*
X3075110Y-7086484D01*
X3075110Y-7086484D02*
X3056062Y-7086484D01*
X3056062Y-7086484D02*
X3037015Y-7076960D01*
X3037015Y-7076960D02*
X3027491Y-7067436D01*
X3027491Y-7067436D02*
X3017967Y-7048388D01*
X3017967Y-7048388D02*
X3008443Y-7010293D01*
X3008443Y-7010293D02*
X3008443Y-6962674D01*
X3008443Y-6962674D02*
X3017967Y-6924579D01*
X3017967Y-6924579D02*
X3027491Y-6905531D01*
X3027491Y-6905531D02*
X3037015Y-6896008D01*
X3037015Y-6896008D02*
X3056062Y-6886484D01*
X3246539Y-6886484D02*
X3265586Y-6886484D01*
X3265586Y-6886484D02*
X3284634Y-6896008D01*
X3284634Y-6896008D02*
X3294158Y-6905531D01*
X3294158Y-6905531D02*
X3303682Y-6924579D01*
X3303682Y-6924579D02*
X3313205Y-6962674D01*
X3313205Y-6962674D02*
X3313205Y-7010293D01*
X3313205Y-7010293D02*
X3303682Y-7048388D01*
X3303682Y-7048388D02*
X3294158Y-7067436D01*
X3294158Y-7067436D02*
X3284634Y-7076960D01*
X3284634Y-7076960D02*
X3265586Y-7086484D01*
X3265586Y-7086484D02*
X3246539Y-7086484D01*
X3246539Y-7086484D02*
X3227491Y-7076960D01*
X3227491Y-7076960D02*
X3217967Y-7067436D01*
X3217967Y-7067436D02*
X3208443Y-7048388D01*
X3208443Y-7048388D02*
X3198920Y-7010293D01*
X3198920Y-7010293D02*
X3198920Y-6962674D01*
X3198920Y-6962674D02*
X3208443Y-6924579D01*
X3208443Y-6924579D02*
X3217967Y-6905531D01*
X3217967Y-6905531D02*
X3227491Y-6896008D01*
X3227491Y-6896008D02*
X3246539Y-6886484D01*
X3398920Y-7086484D02*
X3398920Y-6953150D01*
X3398920Y-6972198D02*
X3408443Y-6962674D01*
X3408443Y-6962674D02*
X3427491Y-6953150D01*
X3427491Y-6953150D02*
X3456063Y-6953150D01*
X3456063Y-6953150D02*
X3475110Y-6962674D01*
X3475110Y-6962674D02*
X3484634Y-6981722D01*
X3484634Y-6981722D02*
X3484634Y-7086484D01*
X3484634Y-6981722D02*
X3494158Y-6962674D01*
X3494158Y-6962674D02*
X3513205Y-6953150D01*
X3513205Y-6953150D02*
X3541777Y-6953150D01*
X3541777Y-6953150D02*
X3560824Y-6962674D01*
X3560824Y-6962674D02*
X3570348Y-6981722D01*
X3570348Y-6981722D02*
X3570348Y-7086484D01*
X3665586Y-7086484D02*
X3665586Y-6953150D01*
X3665586Y-6972198D02*
X3675110Y-6962674D01*
X3675110Y-6962674D02*
X3694158Y-6953150D01*
X3694158Y-6953150D02*
X3722729Y-6953150D01*
X3722729Y-6953150D02*
X3741777Y-6962674D01*
X3741777Y-6962674D02*
X3751301Y-6981722D01*
X3751301Y-6981722D02*
X3751301Y-7086484D01*
X3751301Y-6981722D02*
X3760824Y-6962674D01*
X3760824Y-6962674D02*
X3779872Y-6953150D01*
X3779872Y-6953150D02*
X3808443Y-6953150D01*
X3808443Y-6953150D02*
X3827491Y-6962674D01*
X3827491Y-6962674D02*
X3837015Y-6981722D01*
X3837015Y-6981722D02*
X3837015Y-7086484D01*
X4227491Y-6876960D02*
X4056063Y-7134103D01*
X4484634Y-6886484D02*
X4503682Y-6886484D01*
X4503682Y-6886484D02*
X4522729Y-6896008D01*
X4522729Y-6896008D02*
X4532253Y-6905531D01*
X4532253Y-6905531D02*
X4541777Y-6924579D01*
X4541777Y-6924579D02*
X4551301Y-6962674D01*
X4551301Y-6962674D02*
X4551301Y-7010293D01*
X4551301Y-7010293D02*
X4541777Y-7048388D01*
X4541777Y-7048388D02*
X4532253Y-7067436D01*
X4532253Y-7067436D02*
X4522729Y-7076960D01*
X4522729Y-7076960D02*
X4503682Y-7086484D01*
X4503682Y-7086484D02*
X4484634Y-7086484D01*
X4484634Y-7086484D02*
X4465587Y-7076960D01*
X4465587Y-7076960D02*
X4456063Y-7067436D01*
X4456063Y-7067436D02*
X4446539Y-7048388D01*
X4446539Y-7048388D02*
X4437015Y-7010293D01*
X4437015Y-7010293D02*
X4437015Y-6962674D01*
X4437015Y-6962674D02*
X4446539Y-6924579D01*
X4446539Y-6924579D02*
X4456063Y-6905531D01*
X4456063Y-6905531D02*
X4465587Y-6896008D01*
X4465587Y-6896008D02*
X4484634Y-6886484D01*
X4637015Y-7067436D02*
X4646539Y-7076960D01*
X4646539Y-7076960D02*
X4637015Y-7086484D01*
X4637015Y-7086484D02*
X4627491Y-7076960D01*
X4627491Y-7076960D02*
X4637015Y-7067436D01*
X4637015Y-7067436D02*
X4637015Y-7086484D01*
X4770348Y-6886484D02*
X4789396Y-6886484D01*
X4789396Y-6886484D02*
X4808444Y-6896008D01*
X4808444Y-6896008D02*
X4817968Y-6905531D01*
X4817968Y-6905531D02*
X4827491Y-6924579D01*
X4827491Y-6924579D02*
X4837015Y-6962674D01*
X4837015Y-6962674D02*
X4837015Y-7010293D01*
X4837015Y-7010293D02*
X4827491Y-7048388D01*
X4827491Y-7048388D02*
X4817968Y-7067436D01*
X4817968Y-7067436D02*
X4808444Y-7076960D01*
X4808444Y-7076960D02*
X4789396Y-7086484D01*
X4789396Y-7086484D02*
X4770348Y-7086484D01*
X4770348Y-7086484D02*
X4751301Y-7076960D01*
X4751301Y-7076960D02*
X4741777Y-7067436D01*
X4741777Y-7067436D02*
X4732253Y-7048388D01*
X4732253Y-7048388D02*
X4722729Y-7010293D01*
X4722729Y-7010293D02*
X4722729Y-6962674D01*
X4722729Y-6962674D02*
X4732253Y-6924579D01*
X4732253Y-6924579D02*
X4741777Y-6905531D01*
X4741777Y-6905531D02*
X4751301Y-6896008D01*
X4751301Y-6896008D02*
X4770348Y-6886484D01*
X4951301Y-6972198D02*
X4932253Y-6962674D01*
X4932253Y-6962674D02*
X4922729Y-6953150D01*
X4922729Y-6953150D02*
X4913206Y-6934103D01*
X4913206Y-6934103D02*
X4913206Y-6924579D01*
X4913206Y-6924579D02*
X4922729Y-6905531D01*
X4922729Y-6905531D02*
X4932253Y-6896008D01*
X4932253Y-6896008D02*
X4951301Y-6886484D01*
X4951301Y-6886484D02*
X4989396Y-6886484D01*
X4989396Y-6886484D02*
X5008444Y-6896008D01*
X5008444Y-6896008D02*
X5017968Y-6905531D01*
X5017968Y-6905531D02*
X5027491Y-6924579D01*
X5027491Y-6924579D02*
X5027491Y-6934103D01*
X5027491Y-6934103D02*
X5017968Y-6953150D01*
X5017968Y-6953150D02*
X5008444Y-6962674D01*
X5008444Y-6962674D02*
X4989396Y-6972198D01*
X4989396Y-6972198D02*
X4951301Y-6972198D01*
X4951301Y-6972198D02*
X4932253Y-6981722D01*
X4932253Y-6981722D02*
X4922729Y-6991246D01*
X4922729Y-6991246D02*
X4913206Y-7010293D01*
X4913206Y-7010293D02*
X4913206Y-7048388D01*
X4913206Y-7048388D02*
X4922729Y-7067436D01*
X4922729Y-7067436D02*
X4932253Y-7076960D01*
X4932253Y-7076960D02*
X4951301Y-7086484D01*
X4951301Y-7086484D02*
X4989396Y-7086484D01*
X4989396Y-7086484D02*
X5008444Y-7076960D01*
X5008444Y-7076960D02*
X5017968Y-7067436D01*
X5017968Y-7067436D02*
X5027491Y-7048388D01*
X5027491Y-7048388D02*
X5027491Y-7010293D01*
X5027491Y-7010293D02*
X5017968Y-6991246D01*
X5017968Y-6991246D02*
X5008444Y-6981722D01*
X5008444Y-6981722D02*
X4989396Y-6972198D01*
X5198920Y-6886484D02*
X5160825Y-6886484D01*
X5160825Y-6886484D02*
X5141777Y-6896008D01*
X5141777Y-6896008D02*
X5132253Y-6905531D01*
X5132253Y-6905531D02*
X5113206Y-6934103D01*
X5113206Y-6934103D02*
X5103682Y-6972198D01*
X5103682Y-6972198D02*
X5103682Y-7048388D01*
X5103682Y-7048388D02*
X5113206Y-7067436D01*
X5113206Y-7067436D02*
X5122729Y-7076960D01*
X5122729Y-7076960D02*
X5141777Y-7086484D01*
X5141777Y-7086484D02*
X5179872Y-7086484D01*
X5179872Y-7086484D02*
X5198920Y-7076960D01*
X5198920Y-7076960D02*
X5208444Y-7067436D01*
X5208444Y-7067436D02*
X5217968Y-7048388D01*
X5217968Y-7048388D02*
X5217968Y-7000769D01*
X5217968Y-7000769D02*
X5208444Y-6981722D01*
X5208444Y-6981722D02*
X5198920Y-6972198D01*
X5198920Y-6972198D02*
X5179872Y-6962674D01*
X5179872Y-6962674D02*
X5141777Y-6962674D01*
X5141777Y-6962674D02*
X5122729Y-6972198D01*
X5122729Y-6972198D02*
X5113206Y-6981722D01*
X5113206Y-6981722D02*
X5103682Y-7000769D01*
X5389396Y-6886484D02*
X5351301Y-6886484D01*
X5351301Y-6886484D02*
X5332253Y-6896008D01*
X5332253Y-6896008D02*
X5322729Y-6905531D01*
X5322729Y-6905531D02*
X5303682Y-6934103D01*
X5303682Y-6934103D02*
X5294158Y-6972198D01*
X5294158Y-6972198D02*
X5294158Y-7048388D01*
X5294158Y-7048388D02*
X5303682Y-7067436D01*
X5303682Y-7067436D02*
X5313206Y-7076960D01*
X5313206Y-7076960D02*
X5332253Y-7086484D01*
X5332253Y-7086484D02*
X5370349Y-7086484D01*
X5370349Y-7086484D02*
X5389396Y-7076960D01*
X5389396Y-7076960D02*
X5398920Y-7067436D01*
X5398920Y-7067436D02*
X5408444Y-7048388D01*
X5408444Y-7048388D02*
X5408444Y-7000769D01*
X5408444Y-7000769D02*
X5398920Y-6981722D01*
X5398920Y-6981722D02*
X5389396Y-6972198D01*
X5389396Y-6972198D02*
X5370349Y-6962674D01*
X5370349Y-6962674D02*
X5332253Y-6962674D01*
X5332253Y-6962674D02*
X5313206Y-6972198D01*
X5313206Y-6972198D02*
X5303682Y-6981722D01*
X5303682Y-6981722D02*
X5294158Y-7000769D01*
X5484634Y-6886484D02*
X5484634Y-6924579D01*
X5560825Y-6886484D02*
X5560825Y-6924579D01*
X5856063Y-7162674D02*
X5846539Y-7153150D01*
X5846539Y-7153150D02*
X5827491Y-7124579D01*
X5827491Y-7124579D02*
X5817968Y-7105531D01*
X5817968Y-7105531D02*
X5808444Y-7076960D01*
X5808444Y-7076960D02*
X5798920Y-7029341D01*
X5798920Y-7029341D02*
X5798920Y-6991246D01*
X5798920Y-6991246D02*
X5808444Y-6943627D01*
X5808444Y-6943627D02*
X5817968Y-6915055D01*
X5817968Y-6915055D02*
X5827491Y-6896008D01*
X5827491Y-6896008D02*
X5846539Y-6867436D01*
X5846539Y-6867436D02*
X5856063Y-6857912D01*
X6017968Y-6953150D02*
X6017968Y-7086484D01*
X5970348Y-6876960D02*
X5922729Y-7019817D01*
X5922729Y-7019817D02*
X6046539Y-7019817D01*
X6275110Y-7086484D02*
X6275110Y-6886484D01*
X6360825Y-7086484D02*
X6360825Y-6981722D01*
X6360825Y-6981722D02*
X6351301Y-6962674D01*
X6351301Y-6962674D02*
X6332253Y-6953150D01*
X6332253Y-6953150D02*
X6303682Y-6953150D01*
X6303682Y-6953150D02*
X6284634Y-6962674D01*
X6284634Y-6962674D02*
X6275110Y-6972198D01*
X6484634Y-7086484D02*
X6465587Y-7076960D01*
X6465587Y-7076960D02*
X6456063Y-7067436D01*
X6456063Y-7067436D02*
X6446539Y-7048388D01*
X6446539Y-7048388D02*
X6446539Y-6991246D01*
X6446539Y-6991246D02*
X6456063Y-6972198D01*
X6456063Y-6972198D02*
X6465587Y-6962674D01*
X6465587Y-6962674D02*
X6484634Y-6953150D01*
X6484634Y-6953150D02*
X6513206Y-6953150D01*
X6513206Y-6953150D02*
X6532253Y-6962674D01*
X6532253Y-6962674D02*
X6541777Y-6972198D01*
X6541777Y-6972198D02*
X6551301Y-6991246D01*
X6551301Y-6991246D02*
X6551301Y-7048388D01*
X6551301Y-7048388D02*
X6541777Y-7067436D01*
X6541777Y-7067436D02*
X6532253Y-7076960D01*
X6532253Y-7076960D02*
X6513206Y-7086484D01*
X6513206Y-7086484D02*
X6484634Y-7086484D01*
X6665587Y-7086484D02*
X6646539Y-7076960D01*
X6646539Y-7076960D02*
X6637015Y-7057912D01*
X6637015Y-7057912D02*
X6637015Y-6886484D01*
X6817968Y-7076960D02*
X6798920Y-7086484D01*
X6798920Y-7086484D02*
X6760825Y-7086484D01*
X6760825Y-7086484D02*
X6741777Y-7076960D01*
X6741777Y-7076960D02*
X6732253Y-7057912D01*
X6732253Y-7057912D02*
X6732253Y-6981722D01*
X6732253Y-6981722D02*
X6741777Y-6962674D01*
X6741777Y-6962674D02*
X6760825Y-6953150D01*
X6760825Y-6953150D02*
X6798920Y-6953150D01*
X6798920Y-6953150D02*
X6817968Y-6962674D01*
X6817968Y-6962674D02*
X6827491Y-6981722D01*
X6827491Y-6981722D02*
X6827491Y-7000769D01*
X6827491Y-7000769D02*
X6732253Y-7019817D01*
X6903682Y-7076960D02*
X6922730Y-7086484D01*
X6922730Y-7086484D02*
X6960825Y-7086484D01*
X6960825Y-7086484D02*
X6979872Y-7076960D01*
X6979872Y-7076960D02*
X6989396Y-7057912D01*
X6989396Y-7057912D02*
X6989396Y-7048388D01*
X6989396Y-7048388D02*
X6979872Y-7029341D01*
X6979872Y-7029341D02*
X6960825Y-7019817D01*
X6960825Y-7019817D02*
X6932253Y-7019817D01*
X6932253Y-7019817D02*
X6913206Y-7010293D01*
X6913206Y-7010293D02*
X6903682Y-6991246D01*
X6903682Y-6991246D02*
X6903682Y-6981722D01*
X6903682Y-6981722D02*
X6913206Y-6962674D01*
X6913206Y-6962674D02*
X6932253Y-6953150D01*
X6932253Y-6953150D02*
X6960825Y-6953150D01*
X6960825Y-6953150D02*
X6979872Y-6962674D01*
X7056063Y-7162674D02*
X7065587Y-7153150D01*
X7065587Y-7153150D02*
X7084634Y-7124579D01*
X7084634Y-7124579D02*
X7094158Y-7105531D01*
X7094158Y-7105531D02*
X7103682Y-7076960D01*
X7103682Y-7076960D02*
X7113206Y-7029341D01*
X7113206Y-7029341D02*
X7113206Y-6991246D01*
X7113206Y-6991246D02*
X7103682Y-6943627D01*
X7103682Y-6943627D02*
X7094158Y-6915055D01*
X7094158Y-6915055D02*
X7084634Y-6896008D01*
X7084634Y-6896008D02*
X7065587Y-6867436D01*
X7065587Y-6867436D02*
X7056063Y-6857912D01*
X7417968Y-7162674D02*
X7408444Y-7153150D01*
X7408444Y-7153150D02*
X7389396Y-7124579D01*
X7389396Y-7124579D02*
X7379872Y-7105531D01*
X7379872Y-7105531D02*
X7370349Y-7076960D01*
X7370349Y-7076960D02*
X7360825Y-7029341D01*
X7360825Y-7029341D02*
X7360825Y-6991246D01*
X7360825Y-6991246D02*
X7370349Y-6943627D01*
X7370349Y-6943627D02*
X7379872Y-6915055D01*
X7379872Y-6915055D02*
X7389396Y-6896008D01*
X7389396Y-6896008D02*
X7408444Y-6867436D01*
X7408444Y-6867436D02*
X7417968Y-6857912D01*
X7494158Y-6953150D02*
X7494158Y-7086484D01*
X7494158Y-6972198D02*
X7503682Y-6962674D01*
X7503682Y-6962674D02*
X7522730Y-6953150D01*
X7522730Y-6953150D02*
X7551301Y-6953150D01*
X7551301Y-6953150D02*
X7570349Y-6962674D01*
X7570349Y-6962674D02*
X7579872Y-6981722D01*
X7579872Y-6981722D02*
X7579872Y-7086484D01*
X7703682Y-7086484D02*
X7684634Y-7076960D01*
X7684634Y-7076960D02*
X7675111Y-7067436D01*
X7675111Y-7067436D02*
X7665587Y-7048388D01*
X7665587Y-7048388D02*
X7665587Y-6991246D01*
X7665587Y-6991246D02*
X7675111Y-6972198D01*
X7675111Y-6972198D02*
X7684634Y-6962674D01*
X7684634Y-6962674D02*
X7703682Y-6953150D01*
X7703682Y-6953150D02*
X7732253Y-6953150D01*
X7732253Y-6953150D02*
X7751301Y-6962674D01*
X7751301Y-6962674D02*
X7760825Y-6972198D01*
X7760825Y-6972198D02*
X7770349Y-6991246D01*
X7770349Y-6991246D02*
X7770349Y-7048388D01*
X7770349Y-7048388D02*
X7760825Y-7067436D01*
X7760825Y-7067436D02*
X7751301Y-7076960D01*
X7751301Y-7076960D02*
X7732253Y-7086484D01*
X7732253Y-7086484D02*
X7703682Y-7086484D01*
X7827492Y-6953150D02*
X7903682Y-6953150D01*
X7856063Y-6886484D02*
X7856063Y-7057912D01*
X7856063Y-7057912D02*
X7865587Y-7076960D01*
X7865587Y-7076960D02*
X7884634Y-7086484D01*
X7884634Y-7086484D02*
X7903682Y-7086484D01*
X8122730Y-6953150D02*
X8122730Y-7153150D01*
X8122730Y-6962674D02*
X8141777Y-6953150D01*
X8141777Y-6953150D02*
X8179873Y-6953150D01*
X8179873Y-6953150D02*
X8198920Y-6962674D01*
X8198920Y-6962674D02*
X8208444Y-6972198D01*
X8208444Y-6972198D02*
X8217968Y-6991246D01*
X8217968Y-6991246D02*
X8217968Y-7048388D01*
X8217968Y-7048388D02*
X8208444Y-7067436D01*
X8208444Y-7067436D02*
X8198920Y-7076960D01*
X8198920Y-7076960D02*
X8179873Y-7086484D01*
X8179873Y-7086484D02*
X8141777Y-7086484D01*
X8141777Y-7086484D02*
X8122730Y-7076960D01*
X8332253Y-7086484D02*
X8313206Y-7076960D01*
X8313206Y-7076960D02*
X8303682Y-7057912D01*
X8303682Y-7057912D02*
X8303682Y-6886484D01*
X8494158Y-7086484D02*
X8494158Y-6981722D01*
X8494158Y-6981722D02*
X8484635Y-6962674D01*
X8484635Y-6962674D02*
X8465587Y-6953150D01*
X8465587Y-6953150D02*
X8427492Y-6953150D01*
X8427492Y-6953150D02*
X8408444Y-6962674D01*
X8494158Y-7076960D02*
X8475111Y-7086484D01*
X8475111Y-7086484D02*
X8427492Y-7086484D01*
X8427492Y-7086484D02*
X8408444Y-7076960D01*
X8408444Y-7076960D02*
X8398920Y-7057912D01*
X8398920Y-7057912D02*
X8398920Y-7038865D01*
X8398920Y-7038865D02*
X8408444Y-7019817D01*
X8408444Y-7019817D02*
X8427492Y-7010293D01*
X8427492Y-7010293D02*
X8475111Y-7010293D01*
X8475111Y-7010293D02*
X8494158Y-7000769D01*
X8560825Y-6953150D02*
X8637015Y-6953150D01*
X8589396Y-6886484D02*
X8589396Y-7057912D01*
X8589396Y-7057912D02*
X8598920Y-7076960D01*
X8598920Y-7076960D02*
X8617968Y-7086484D01*
X8617968Y-7086484D02*
X8637015Y-7086484D01*
X8779873Y-7076960D02*
X8760825Y-7086484D01*
X8760825Y-7086484D02*
X8722730Y-7086484D01*
X8722730Y-7086484D02*
X8703682Y-7076960D01*
X8703682Y-7076960D02*
X8694158Y-7057912D01*
X8694158Y-7057912D02*
X8694158Y-6981722D01*
X8694158Y-6981722D02*
X8703682Y-6962674D01*
X8703682Y-6962674D02*
X8722730Y-6953150D01*
X8722730Y-6953150D02*
X8760825Y-6953150D01*
X8760825Y-6953150D02*
X8779873Y-6962674D01*
X8779873Y-6962674D02*
X8789396Y-6981722D01*
X8789396Y-6981722D02*
X8789396Y-7000769D01*
X8789396Y-7000769D02*
X8694158Y-7019817D01*
X8960825Y-7086484D02*
X8960825Y-6886484D01*
X8960825Y-7076960D02*
X8941777Y-7086484D01*
X8941777Y-7086484D02*
X8903682Y-7086484D01*
X8903682Y-7086484D02*
X8884635Y-7076960D01*
X8884635Y-7076960D02*
X8875111Y-7067436D01*
X8875111Y-7067436D02*
X8865587Y-7048388D01*
X8865587Y-7048388D02*
X8865587Y-6991246D01*
X8865587Y-6991246D02*
X8875111Y-6972198D01*
X8875111Y-6972198D02*
X8884635Y-6962674D01*
X8884635Y-6962674D02*
X8903682Y-6953150D01*
X8903682Y-6953150D02*
X8941777Y-6953150D01*
X8941777Y-6953150D02*
X8960825Y-6962674D01*
X9037016Y-7162674D02*
X9046539Y-7153150D01*
X9046539Y-7153150D02*
X9065587Y-7124579D01*
X9065587Y-7124579D02*
X9075111Y-7105531D01*
X9075111Y-7105531D02*
X9084635Y-7076960D01*
X9084635Y-7076960D02*
X9094158Y-7029341D01*
X9094158Y-7029341D02*
X9094158Y-6991246D01*
X9094158Y-6991246D02*
X9084635Y-6943627D01*
X9084635Y-6943627D02*
X9075111Y-6915055D01*
X9075111Y-6915055D02*
X9065587Y-6896008D01*
X9065587Y-6896008D02*
X9046539Y-6867436D01*
X9046539Y-6867436D02*
X9037016Y-6857912D01*
M02*
