%TF.GenerationSoftware,KiCad,Pcbnew,8.0.3*%
%TF.CreationDate,2024-06-30T11:32:45+09:00*%
%TF.ProjectId,gamepad_attiny85,67616d65-7061-4645-9f61-7474696e7938,rev?*%
%TF.SameCoordinates,Original*%
%TF.FileFunction,Legend,Top*%
%TF.FilePolarity,Positive*%
%FSLAX46Y46*%
G04 Gerber Fmt 4.6, Leading zero omitted, Abs format (unit mm)*
G04 Created by KiCad (PCBNEW 8.0.3) date 2024-06-30 11:32:45*
%MOMM*%
%LPD*%
G01*
G04 APERTURE LIST*
%ADD10C,0.150000*%
%ADD11C,0.120000*%
G04 APERTURE END LIST*
D10*
X34869523Y-61244819D02*
X34298095Y-61244819D01*
X34583809Y-61244819D02*
X34583809Y-60244819D01*
X34583809Y-60244819D02*
X34488571Y-60387676D01*
X34488571Y-60387676D02*
X34393333Y-60482914D01*
X34393333Y-60482914D02*
X34298095Y-60530533D01*
X35488571Y-60244819D02*
X35583809Y-60244819D01*
X35583809Y-60244819D02*
X35679047Y-60292438D01*
X35679047Y-60292438D02*
X35726666Y-60340057D01*
X35726666Y-60340057D02*
X35774285Y-60435295D01*
X35774285Y-60435295D02*
X35821904Y-60625771D01*
X35821904Y-60625771D02*
X35821904Y-60863866D01*
X35821904Y-60863866D02*
X35774285Y-61054342D01*
X35774285Y-61054342D02*
X35726666Y-61149580D01*
X35726666Y-61149580D02*
X35679047Y-61197200D01*
X35679047Y-61197200D02*
X35583809Y-61244819D01*
X35583809Y-61244819D02*
X35488571Y-61244819D01*
X35488571Y-61244819D02*
X35393333Y-61197200D01*
X35393333Y-61197200D02*
X35345714Y-61149580D01*
X35345714Y-61149580D02*
X35298095Y-61054342D01*
X35298095Y-61054342D02*
X35250476Y-60863866D01*
X35250476Y-60863866D02*
X35250476Y-60625771D01*
X35250476Y-60625771D02*
X35298095Y-60435295D01*
X35298095Y-60435295D02*
X35345714Y-60340057D01*
X35345714Y-60340057D02*
X35393333Y-60292438D01*
X35393333Y-60292438D02*
X35488571Y-60244819D01*
X36250476Y-61244819D02*
X36250476Y-60244819D01*
X36821904Y-61244819D02*
X36393333Y-60673390D01*
X36821904Y-60244819D02*
X36250476Y-60816247D01*
X97893333Y-58704819D02*
X98083809Y-58704819D01*
X98083809Y-58704819D02*
X98179047Y-58657200D01*
X98179047Y-58657200D02*
X98226666Y-58609580D01*
X98226666Y-58609580D02*
X98321904Y-58466723D01*
X98321904Y-58466723D02*
X98369523Y-58276247D01*
X98369523Y-58276247D02*
X98369523Y-57895295D01*
X98369523Y-57895295D02*
X98321904Y-57800057D01*
X98321904Y-57800057D02*
X98274285Y-57752438D01*
X98274285Y-57752438D02*
X98179047Y-57704819D01*
X98179047Y-57704819D02*
X97988571Y-57704819D01*
X97988571Y-57704819D02*
X97893333Y-57752438D01*
X97893333Y-57752438D02*
X97845714Y-57800057D01*
X97845714Y-57800057D02*
X97798095Y-57895295D01*
X97798095Y-57895295D02*
X97798095Y-58133390D01*
X97798095Y-58133390D02*
X97845714Y-58228628D01*
X97845714Y-58228628D02*
X97893333Y-58276247D01*
X97893333Y-58276247D02*
X97988571Y-58323866D01*
X97988571Y-58323866D02*
X98179047Y-58323866D01*
X98179047Y-58323866D02*
X98274285Y-58276247D01*
X98274285Y-58276247D02*
X98321904Y-58228628D01*
X98321904Y-58228628D02*
X98369523Y-58133390D01*
X99321904Y-58704819D02*
X98750476Y-58704819D01*
X99036190Y-58704819D02*
X99036190Y-57704819D01*
X99036190Y-57704819D02*
X98940952Y-57847676D01*
X98940952Y-57847676D02*
X98845714Y-57942914D01*
X98845714Y-57942914D02*
X98750476Y-57990533D01*
X99750476Y-58704819D02*
X99750476Y-57704819D01*
X100321904Y-58704819D02*
X99893333Y-58133390D01*
X100321904Y-57704819D02*
X99750476Y-58276247D01*
X45728095Y-60340057D02*
X45775714Y-60292438D01*
X45775714Y-60292438D02*
X45870952Y-60244819D01*
X45870952Y-60244819D02*
X46109047Y-60244819D01*
X46109047Y-60244819D02*
X46204285Y-60292438D01*
X46204285Y-60292438D02*
X46251904Y-60340057D01*
X46251904Y-60340057D02*
X46299523Y-60435295D01*
X46299523Y-60435295D02*
X46299523Y-60530533D01*
X46299523Y-60530533D02*
X46251904Y-60673390D01*
X46251904Y-60673390D02*
X45680476Y-61244819D01*
X45680476Y-61244819D02*
X46299523Y-61244819D01*
X46680476Y-60340057D02*
X46728095Y-60292438D01*
X46728095Y-60292438D02*
X46823333Y-60244819D01*
X46823333Y-60244819D02*
X47061428Y-60244819D01*
X47061428Y-60244819D02*
X47156666Y-60292438D01*
X47156666Y-60292438D02*
X47204285Y-60340057D01*
X47204285Y-60340057D02*
X47251904Y-60435295D01*
X47251904Y-60435295D02*
X47251904Y-60530533D01*
X47251904Y-60530533D02*
X47204285Y-60673390D01*
X47204285Y-60673390D02*
X46632857Y-61244819D01*
X46632857Y-61244819D02*
X47251904Y-61244819D01*
X47680476Y-61244819D02*
X47680476Y-60244819D01*
X48251904Y-61244819D02*
X47823333Y-60673390D01*
X48251904Y-60244819D02*
X47680476Y-60816247D01*
X86320476Y-57704819D02*
X86939523Y-57704819D01*
X86939523Y-57704819D02*
X86606190Y-58085771D01*
X86606190Y-58085771D02*
X86749047Y-58085771D01*
X86749047Y-58085771D02*
X86844285Y-58133390D01*
X86844285Y-58133390D02*
X86891904Y-58181009D01*
X86891904Y-58181009D02*
X86939523Y-58276247D01*
X86939523Y-58276247D02*
X86939523Y-58514342D01*
X86939523Y-58514342D02*
X86891904Y-58609580D01*
X86891904Y-58609580D02*
X86844285Y-58657200D01*
X86844285Y-58657200D02*
X86749047Y-58704819D01*
X86749047Y-58704819D02*
X86463333Y-58704819D01*
X86463333Y-58704819D02*
X86368095Y-58657200D01*
X86368095Y-58657200D02*
X86320476Y-58609580D01*
X87272857Y-57704819D02*
X87891904Y-57704819D01*
X87891904Y-57704819D02*
X87558571Y-58085771D01*
X87558571Y-58085771D02*
X87701428Y-58085771D01*
X87701428Y-58085771D02*
X87796666Y-58133390D01*
X87796666Y-58133390D02*
X87844285Y-58181009D01*
X87844285Y-58181009D02*
X87891904Y-58276247D01*
X87891904Y-58276247D02*
X87891904Y-58514342D01*
X87891904Y-58514342D02*
X87844285Y-58609580D01*
X87844285Y-58609580D02*
X87796666Y-58657200D01*
X87796666Y-58657200D02*
X87701428Y-58704819D01*
X87701428Y-58704819D02*
X87415714Y-58704819D01*
X87415714Y-58704819D02*
X87320476Y-58657200D01*
X87320476Y-58657200D02*
X87272857Y-58609580D01*
X88320476Y-58704819D02*
X88320476Y-57704819D01*
X88891904Y-58704819D02*
X88463333Y-58133390D01*
X88891904Y-57704819D02*
X88320476Y-58276247D01*
X45728095Y-55260057D02*
X45775714Y-55212438D01*
X45775714Y-55212438D02*
X45870952Y-55164819D01*
X45870952Y-55164819D02*
X46109047Y-55164819D01*
X46109047Y-55164819D02*
X46204285Y-55212438D01*
X46204285Y-55212438D02*
X46251904Y-55260057D01*
X46251904Y-55260057D02*
X46299523Y-55355295D01*
X46299523Y-55355295D02*
X46299523Y-55450533D01*
X46299523Y-55450533D02*
X46251904Y-55593390D01*
X46251904Y-55593390D02*
X45680476Y-56164819D01*
X45680476Y-56164819D02*
X46299523Y-56164819D01*
X46680476Y-55260057D02*
X46728095Y-55212438D01*
X46728095Y-55212438D02*
X46823333Y-55164819D01*
X46823333Y-55164819D02*
X47061428Y-55164819D01*
X47061428Y-55164819D02*
X47156666Y-55212438D01*
X47156666Y-55212438D02*
X47204285Y-55260057D01*
X47204285Y-55260057D02*
X47251904Y-55355295D01*
X47251904Y-55355295D02*
X47251904Y-55450533D01*
X47251904Y-55450533D02*
X47204285Y-55593390D01*
X47204285Y-55593390D02*
X46632857Y-56164819D01*
X46632857Y-56164819D02*
X47251904Y-56164819D01*
X47680476Y-56164819D02*
X47680476Y-55164819D01*
X48251904Y-56164819D02*
X47823333Y-55593390D01*
X48251904Y-55164819D02*
X47680476Y-55736247D01*
X97893333Y-53624819D02*
X98083809Y-53624819D01*
X98083809Y-53624819D02*
X98179047Y-53577200D01*
X98179047Y-53577200D02*
X98226666Y-53529580D01*
X98226666Y-53529580D02*
X98321904Y-53386723D01*
X98321904Y-53386723D02*
X98369523Y-53196247D01*
X98369523Y-53196247D02*
X98369523Y-52815295D01*
X98369523Y-52815295D02*
X98321904Y-52720057D01*
X98321904Y-52720057D02*
X98274285Y-52672438D01*
X98274285Y-52672438D02*
X98179047Y-52624819D01*
X98179047Y-52624819D02*
X97988571Y-52624819D01*
X97988571Y-52624819D02*
X97893333Y-52672438D01*
X97893333Y-52672438D02*
X97845714Y-52720057D01*
X97845714Y-52720057D02*
X97798095Y-52815295D01*
X97798095Y-52815295D02*
X97798095Y-53053390D01*
X97798095Y-53053390D02*
X97845714Y-53148628D01*
X97845714Y-53148628D02*
X97893333Y-53196247D01*
X97893333Y-53196247D02*
X97988571Y-53243866D01*
X97988571Y-53243866D02*
X98179047Y-53243866D01*
X98179047Y-53243866D02*
X98274285Y-53196247D01*
X98274285Y-53196247D02*
X98321904Y-53148628D01*
X98321904Y-53148628D02*
X98369523Y-53053390D01*
X99321904Y-53624819D02*
X98750476Y-53624819D01*
X99036190Y-53624819D02*
X99036190Y-52624819D01*
X99036190Y-52624819D02*
X98940952Y-52767676D01*
X98940952Y-52767676D02*
X98845714Y-52862914D01*
X98845714Y-52862914D02*
X98750476Y-52910533D01*
X99750476Y-53624819D02*
X99750476Y-52624819D01*
X100321904Y-53624819D02*
X99893333Y-53053390D01*
X100321904Y-52624819D02*
X99750476Y-53196247D01*
X27365238Y-48037200D02*
X27508095Y-48084819D01*
X27508095Y-48084819D02*
X27746190Y-48084819D01*
X27746190Y-48084819D02*
X27841428Y-48037200D01*
X27841428Y-48037200D02*
X27889047Y-47989580D01*
X27889047Y-47989580D02*
X27936666Y-47894342D01*
X27936666Y-47894342D02*
X27936666Y-47799104D01*
X27936666Y-47799104D02*
X27889047Y-47703866D01*
X27889047Y-47703866D02*
X27841428Y-47656247D01*
X27841428Y-47656247D02*
X27746190Y-47608628D01*
X27746190Y-47608628D02*
X27555714Y-47561009D01*
X27555714Y-47561009D02*
X27460476Y-47513390D01*
X27460476Y-47513390D02*
X27412857Y-47465771D01*
X27412857Y-47465771D02*
X27365238Y-47370533D01*
X27365238Y-47370533D02*
X27365238Y-47275295D01*
X27365238Y-47275295D02*
X27412857Y-47180057D01*
X27412857Y-47180057D02*
X27460476Y-47132438D01*
X27460476Y-47132438D02*
X27555714Y-47084819D01*
X27555714Y-47084819D02*
X27793809Y-47084819D01*
X27793809Y-47084819D02*
X27936666Y-47132438D01*
X28270000Y-47084819D02*
X28508095Y-48084819D01*
X28508095Y-48084819D02*
X28698571Y-47370533D01*
X28698571Y-47370533D02*
X28889047Y-48084819D01*
X28889047Y-48084819D02*
X29127143Y-47084819D01*
X29270000Y-48180057D02*
X30031904Y-48180057D01*
X30746190Y-48084819D02*
X30270000Y-48084819D01*
X30270000Y-48084819D02*
X30270000Y-47084819D01*
X31079524Y-47561009D02*
X31412857Y-47561009D01*
X31555714Y-48084819D02*
X31079524Y-48084819D01*
X31079524Y-48084819D02*
X31079524Y-47084819D01*
X31079524Y-47084819D02*
X31555714Y-47084819D01*
X32317619Y-47561009D02*
X31984286Y-47561009D01*
X31984286Y-48084819D02*
X31984286Y-47084819D01*
X31984286Y-47084819D02*
X32460476Y-47084819D01*
X32698572Y-47084819D02*
X33270000Y-47084819D01*
X32984286Y-48084819D02*
X32984286Y-47084819D01*
X33798095Y-40417200D02*
X33940952Y-40464819D01*
X33940952Y-40464819D02*
X34179047Y-40464819D01*
X34179047Y-40464819D02*
X34274285Y-40417200D01*
X34274285Y-40417200D02*
X34321904Y-40369580D01*
X34321904Y-40369580D02*
X34369523Y-40274342D01*
X34369523Y-40274342D02*
X34369523Y-40179104D01*
X34369523Y-40179104D02*
X34321904Y-40083866D01*
X34321904Y-40083866D02*
X34274285Y-40036247D01*
X34274285Y-40036247D02*
X34179047Y-39988628D01*
X34179047Y-39988628D02*
X33988571Y-39941009D01*
X33988571Y-39941009D02*
X33893333Y-39893390D01*
X33893333Y-39893390D02*
X33845714Y-39845771D01*
X33845714Y-39845771D02*
X33798095Y-39750533D01*
X33798095Y-39750533D02*
X33798095Y-39655295D01*
X33798095Y-39655295D02*
X33845714Y-39560057D01*
X33845714Y-39560057D02*
X33893333Y-39512438D01*
X33893333Y-39512438D02*
X33988571Y-39464819D01*
X33988571Y-39464819D02*
X34226666Y-39464819D01*
X34226666Y-39464819D02*
X34369523Y-39512438D01*
X34702857Y-39464819D02*
X34940952Y-40464819D01*
X34940952Y-40464819D02*
X35131428Y-39750533D01*
X35131428Y-39750533D02*
X35321904Y-40464819D01*
X35321904Y-40464819D02*
X35560000Y-39464819D01*
X35702857Y-40560057D02*
X36464761Y-40560057D01*
X36702857Y-39464819D02*
X36702857Y-40274342D01*
X36702857Y-40274342D02*
X36750476Y-40369580D01*
X36750476Y-40369580D02*
X36798095Y-40417200D01*
X36798095Y-40417200D02*
X36893333Y-40464819D01*
X36893333Y-40464819D02*
X37083809Y-40464819D01*
X37083809Y-40464819D02*
X37179047Y-40417200D01*
X37179047Y-40417200D02*
X37226666Y-40369580D01*
X37226666Y-40369580D02*
X37274285Y-40274342D01*
X37274285Y-40274342D02*
X37274285Y-39464819D01*
X37750476Y-40464819D02*
X37750476Y-39464819D01*
X37750476Y-39464819D02*
X38131428Y-39464819D01*
X38131428Y-39464819D02*
X38226666Y-39512438D01*
X38226666Y-39512438D02*
X38274285Y-39560057D01*
X38274285Y-39560057D02*
X38321904Y-39655295D01*
X38321904Y-39655295D02*
X38321904Y-39798152D01*
X38321904Y-39798152D02*
X38274285Y-39893390D01*
X38274285Y-39893390D02*
X38226666Y-39941009D01*
X38226666Y-39941009D02*
X38131428Y-39988628D01*
X38131428Y-39988628D02*
X37750476Y-39988628D01*
X32702857Y-55657200D02*
X32845714Y-55704819D01*
X32845714Y-55704819D02*
X33083809Y-55704819D01*
X33083809Y-55704819D02*
X33179047Y-55657200D01*
X33179047Y-55657200D02*
X33226666Y-55609580D01*
X33226666Y-55609580D02*
X33274285Y-55514342D01*
X33274285Y-55514342D02*
X33274285Y-55419104D01*
X33274285Y-55419104D02*
X33226666Y-55323866D01*
X33226666Y-55323866D02*
X33179047Y-55276247D01*
X33179047Y-55276247D02*
X33083809Y-55228628D01*
X33083809Y-55228628D02*
X32893333Y-55181009D01*
X32893333Y-55181009D02*
X32798095Y-55133390D01*
X32798095Y-55133390D02*
X32750476Y-55085771D01*
X32750476Y-55085771D02*
X32702857Y-54990533D01*
X32702857Y-54990533D02*
X32702857Y-54895295D01*
X32702857Y-54895295D02*
X32750476Y-54800057D01*
X32750476Y-54800057D02*
X32798095Y-54752438D01*
X32798095Y-54752438D02*
X32893333Y-54704819D01*
X32893333Y-54704819D02*
X33131428Y-54704819D01*
X33131428Y-54704819D02*
X33274285Y-54752438D01*
X33607619Y-54704819D02*
X33845714Y-55704819D01*
X33845714Y-55704819D02*
X34036190Y-54990533D01*
X34036190Y-54990533D02*
X34226666Y-55704819D01*
X34226666Y-55704819D02*
X34464762Y-54704819D01*
X34607619Y-55800057D02*
X35369523Y-55800057D01*
X35607619Y-55704819D02*
X35607619Y-54704819D01*
X35607619Y-54704819D02*
X35845714Y-54704819D01*
X35845714Y-54704819D02*
X35988571Y-54752438D01*
X35988571Y-54752438D02*
X36083809Y-54847676D01*
X36083809Y-54847676D02*
X36131428Y-54942914D01*
X36131428Y-54942914D02*
X36179047Y-55133390D01*
X36179047Y-55133390D02*
X36179047Y-55276247D01*
X36179047Y-55276247D02*
X36131428Y-55466723D01*
X36131428Y-55466723D02*
X36083809Y-55561961D01*
X36083809Y-55561961D02*
X35988571Y-55657200D01*
X35988571Y-55657200D02*
X35845714Y-55704819D01*
X35845714Y-55704819D02*
X35607619Y-55704819D01*
X36798095Y-54704819D02*
X36988571Y-54704819D01*
X36988571Y-54704819D02*
X37083809Y-54752438D01*
X37083809Y-54752438D02*
X37179047Y-54847676D01*
X37179047Y-54847676D02*
X37226666Y-55038152D01*
X37226666Y-55038152D02*
X37226666Y-55371485D01*
X37226666Y-55371485D02*
X37179047Y-55561961D01*
X37179047Y-55561961D02*
X37083809Y-55657200D01*
X37083809Y-55657200D02*
X36988571Y-55704819D01*
X36988571Y-55704819D02*
X36798095Y-55704819D01*
X36798095Y-55704819D02*
X36702857Y-55657200D01*
X36702857Y-55657200D02*
X36607619Y-55561961D01*
X36607619Y-55561961D02*
X36560000Y-55371485D01*
X36560000Y-55371485D02*
X36560000Y-55038152D01*
X36560000Y-55038152D02*
X36607619Y-54847676D01*
X36607619Y-54847676D02*
X36702857Y-54752438D01*
X36702857Y-54752438D02*
X36798095Y-54704819D01*
X37560000Y-54704819D02*
X37798095Y-55704819D01*
X37798095Y-55704819D02*
X37988571Y-54990533D01*
X37988571Y-54990533D02*
X38179047Y-55704819D01*
X38179047Y-55704819D02*
X38417143Y-54704819D01*
X38798095Y-55704819D02*
X38798095Y-54704819D01*
X38798095Y-54704819D02*
X39369523Y-55704819D01*
X39369523Y-55704819D02*
X39369523Y-54704819D01*
X84447142Y-28814819D02*
X83970952Y-28814819D01*
X83970952Y-28814819D02*
X83970952Y-27814819D01*
X84780476Y-28291009D02*
X85113809Y-28291009D01*
X85256666Y-28814819D02*
X84780476Y-28814819D01*
X84780476Y-28814819D02*
X84780476Y-27814819D01*
X84780476Y-27814819D02*
X85256666Y-27814819D01*
X85685238Y-28814819D02*
X85685238Y-27814819D01*
X85685238Y-27814819D02*
X85923333Y-27814819D01*
X85923333Y-27814819D02*
X86066190Y-27862438D01*
X86066190Y-27862438D02*
X86161428Y-27957676D01*
X86161428Y-27957676D02*
X86209047Y-28052914D01*
X86209047Y-28052914D02*
X86256666Y-28243390D01*
X86256666Y-28243390D02*
X86256666Y-28386247D01*
X86256666Y-28386247D02*
X86209047Y-28576723D01*
X86209047Y-28576723D02*
X86161428Y-28671961D01*
X86161428Y-28671961D02*
X86066190Y-28767200D01*
X86066190Y-28767200D02*
X85923333Y-28814819D01*
X85923333Y-28814819D02*
X85685238Y-28814819D01*
X42886666Y-25569104D02*
X43362856Y-25569104D01*
X42791428Y-25854819D02*
X43124761Y-24854819D01*
X43124761Y-24854819D02*
X43458094Y-25854819D01*
X43648571Y-25188152D02*
X44029523Y-25188152D01*
X43791428Y-24854819D02*
X43791428Y-25711961D01*
X43791428Y-25711961D02*
X43839047Y-25807200D01*
X43839047Y-25807200D02*
X43934285Y-25854819D01*
X43934285Y-25854819D02*
X44029523Y-25854819D01*
X44220000Y-25188152D02*
X44600952Y-25188152D01*
X44362857Y-24854819D02*
X44362857Y-25711961D01*
X44362857Y-25711961D02*
X44410476Y-25807200D01*
X44410476Y-25807200D02*
X44505714Y-25854819D01*
X44505714Y-25854819D02*
X44600952Y-25854819D01*
X44934286Y-25854819D02*
X44934286Y-25188152D01*
X44934286Y-24854819D02*
X44886667Y-24902438D01*
X44886667Y-24902438D02*
X44934286Y-24950057D01*
X44934286Y-24950057D02*
X44981905Y-24902438D01*
X44981905Y-24902438D02*
X44934286Y-24854819D01*
X44934286Y-24854819D02*
X44934286Y-24950057D01*
X45410476Y-25188152D02*
X45410476Y-25854819D01*
X45410476Y-25283390D02*
X45458095Y-25235771D01*
X45458095Y-25235771D02*
X45553333Y-25188152D01*
X45553333Y-25188152D02*
X45696190Y-25188152D01*
X45696190Y-25188152D02*
X45791428Y-25235771D01*
X45791428Y-25235771D02*
X45839047Y-25331009D01*
X45839047Y-25331009D02*
X45839047Y-25854819D01*
X46220000Y-25188152D02*
X46458095Y-25854819D01*
X46696190Y-25188152D02*
X46458095Y-25854819D01*
X46458095Y-25854819D02*
X46362857Y-26092914D01*
X46362857Y-26092914D02*
X46315238Y-26140533D01*
X46315238Y-26140533D02*
X46220000Y-26188152D01*
X47220000Y-25283390D02*
X47124762Y-25235771D01*
X47124762Y-25235771D02*
X47077143Y-25188152D01*
X47077143Y-25188152D02*
X47029524Y-25092914D01*
X47029524Y-25092914D02*
X47029524Y-25045295D01*
X47029524Y-25045295D02*
X47077143Y-24950057D01*
X47077143Y-24950057D02*
X47124762Y-24902438D01*
X47124762Y-24902438D02*
X47220000Y-24854819D01*
X47220000Y-24854819D02*
X47410476Y-24854819D01*
X47410476Y-24854819D02*
X47505714Y-24902438D01*
X47505714Y-24902438D02*
X47553333Y-24950057D01*
X47553333Y-24950057D02*
X47600952Y-25045295D01*
X47600952Y-25045295D02*
X47600952Y-25092914D01*
X47600952Y-25092914D02*
X47553333Y-25188152D01*
X47553333Y-25188152D02*
X47505714Y-25235771D01*
X47505714Y-25235771D02*
X47410476Y-25283390D01*
X47410476Y-25283390D02*
X47220000Y-25283390D01*
X47220000Y-25283390D02*
X47124762Y-25331009D01*
X47124762Y-25331009D02*
X47077143Y-25378628D01*
X47077143Y-25378628D02*
X47029524Y-25473866D01*
X47029524Y-25473866D02*
X47029524Y-25664342D01*
X47029524Y-25664342D02*
X47077143Y-25759580D01*
X47077143Y-25759580D02*
X47124762Y-25807200D01*
X47124762Y-25807200D02*
X47220000Y-25854819D01*
X47220000Y-25854819D02*
X47410476Y-25854819D01*
X47410476Y-25854819D02*
X47505714Y-25807200D01*
X47505714Y-25807200D02*
X47553333Y-25759580D01*
X47553333Y-25759580D02*
X47600952Y-25664342D01*
X47600952Y-25664342D02*
X47600952Y-25473866D01*
X47600952Y-25473866D02*
X47553333Y-25378628D01*
X47553333Y-25378628D02*
X47505714Y-25331009D01*
X47505714Y-25331009D02*
X47410476Y-25283390D01*
X48505714Y-24854819D02*
X48029524Y-24854819D01*
X48029524Y-24854819D02*
X47981905Y-25331009D01*
X47981905Y-25331009D02*
X48029524Y-25283390D01*
X48029524Y-25283390D02*
X48124762Y-25235771D01*
X48124762Y-25235771D02*
X48362857Y-25235771D01*
X48362857Y-25235771D02*
X48458095Y-25283390D01*
X48458095Y-25283390D02*
X48505714Y-25331009D01*
X48505714Y-25331009D02*
X48553333Y-25426247D01*
X48553333Y-25426247D02*
X48553333Y-25664342D01*
X48553333Y-25664342D02*
X48505714Y-25759580D01*
X48505714Y-25759580D02*
X48458095Y-25807200D01*
X48458095Y-25807200D02*
X48362857Y-25854819D01*
X48362857Y-25854819D02*
X48124762Y-25854819D01*
X48124762Y-25854819D02*
X48029524Y-25807200D01*
X48029524Y-25807200D02*
X47981905Y-25759580D01*
X94591428Y-32731009D02*
X94734285Y-32778628D01*
X94734285Y-32778628D02*
X94781904Y-32826247D01*
X94781904Y-32826247D02*
X94829523Y-32921485D01*
X94829523Y-32921485D02*
X94829523Y-33064342D01*
X94829523Y-33064342D02*
X94781904Y-33159580D01*
X94781904Y-33159580D02*
X94734285Y-33207200D01*
X94734285Y-33207200D02*
X94639047Y-33254819D01*
X94639047Y-33254819D02*
X94258095Y-33254819D01*
X94258095Y-33254819D02*
X94258095Y-32254819D01*
X94258095Y-32254819D02*
X94591428Y-32254819D01*
X94591428Y-32254819D02*
X94686666Y-32302438D01*
X94686666Y-32302438D02*
X94734285Y-32350057D01*
X94734285Y-32350057D02*
X94781904Y-32445295D01*
X94781904Y-32445295D02*
X94781904Y-32540533D01*
X94781904Y-32540533D02*
X94734285Y-32635771D01*
X94734285Y-32635771D02*
X94686666Y-32683390D01*
X94686666Y-32683390D02*
X94591428Y-32731009D01*
X94591428Y-32731009D02*
X94258095Y-32731009D01*
X95686666Y-32588152D02*
X95686666Y-33254819D01*
X95258095Y-32588152D02*
X95258095Y-33111961D01*
X95258095Y-33111961D02*
X95305714Y-33207200D01*
X95305714Y-33207200D02*
X95400952Y-33254819D01*
X95400952Y-33254819D02*
X95543809Y-33254819D01*
X95543809Y-33254819D02*
X95639047Y-33207200D01*
X95639047Y-33207200D02*
X95686666Y-33159580D01*
X96067619Y-32588152D02*
X96591428Y-32588152D01*
X96591428Y-32588152D02*
X96067619Y-33254819D01*
X96067619Y-33254819D02*
X96591428Y-33254819D01*
X96877143Y-32588152D02*
X97400952Y-32588152D01*
X97400952Y-32588152D02*
X96877143Y-33254819D01*
X96877143Y-33254819D02*
X97400952Y-33254819D01*
X98162857Y-33207200D02*
X98067619Y-33254819D01*
X98067619Y-33254819D02*
X97877143Y-33254819D01*
X97877143Y-33254819D02*
X97781905Y-33207200D01*
X97781905Y-33207200D02*
X97734286Y-33111961D01*
X97734286Y-33111961D02*
X97734286Y-32731009D01*
X97734286Y-32731009D02*
X97781905Y-32635771D01*
X97781905Y-32635771D02*
X97877143Y-32588152D01*
X97877143Y-32588152D02*
X98067619Y-32588152D01*
X98067619Y-32588152D02*
X98162857Y-32635771D01*
X98162857Y-32635771D02*
X98210476Y-32731009D01*
X98210476Y-32731009D02*
X98210476Y-32826247D01*
X98210476Y-32826247D02*
X97734286Y-32921485D01*
X98639048Y-33254819D02*
X98639048Y-32588152D01*
X98639048Y-32778628D02*
X98686667Y-32683390D01*
X98686667Y-32683390D02*
X98734286Y-32635771D01*
X98734286Y-32635771D02*
X98829524Y-32588152D01*
X98829524Y-32588152D02*
X98924762Y-32588152D01*
X92329048Y-22933866D02*
X93090953Y-22933866D01*
X92710000Y-23314819D02*
X92710000Y-22552914D01*
X38469048Y-48037200D02*
X38611905Y-48084819D01*
X38611905Y-48084819D02*
X38850000Y-48084819D01*
X38850000Y-48084819D02*
X38945238Y-48037200D01*
X38945238Y-48037200D02*
X38992857Y-47989580D01*
X38992857Y-47989580D02*
X39040476Y-47894342D01*
X39040476Y-47894342D02*
X39040476Y-47799104D01*
X39040476Y-47799104D02*
X38992857Y-47703866D01*
X38992857Y-47703866D02*
X38945238Y-47656247D01*
X38945238Y-47656247D02*
X38850000Y-47608628D01*
X38850000Y-47608628D02*
X38659524Y-47561009D01*
X38659524Y-47561009D02*
X38564286Y-47513390D01*
X38564286Y-47513390D02*
X38516667Y-47465771D01*
X38516667Y-47465771D02*
X38469048Y-47370533D01*
X38469048Y-47370533D02*
X38469048Y-47275295D01*
X38469048Y-47275295D02*
X38516667Y-47180057D01*
X38516667Y-47180057D02*
X38564286Y-47132438D01*
X38564286Y-47132438D02*
X38659524Y-47084819D01*
X38659524Y-47084819D02*
X38897619Y-47084819D01*
X38897619Y-47084819D02*
X39040476Y-47132438D01*
X39373810Y-47084819D02*
X39611905Y-48084819D01*
X39611905Y-48084819D02*
X39802381Y-47370533D01*
X39802381Y-47370533D02*
X39992857Y-48084819D01*
X39992857Y-48084819D02*
X40230953Y-47084819D01*
X40373810Y-48180057D02*
X41135714Y-48180057D01*
X41945238Y-48084819D02*
X41611905Y-47608628D01*
X41373810Y-48084819D02*
X41373810Y-47084819D01*
X41373810Y-47084819D02*
X41754762Y-47084819D01*
X41754762Y-47084819D02*
X41850000Y-47132438D01*
X41850000Y-47132438D02*
X41897619Y-47180057D01*
X41897619Y-47180057D02*
X41945238Y-47275295D01*
X41945238Y-47275295D02*
X41945238Y-47418152D01*
X41945238Y-47418152D02*
X41897619Y-47513390D01*
X41897619Y-47513390D02*
X41850000Y-47561009D01*
X41850000Y-47561009D02*
X41754762Y-47608628D01*
X41754762Y-47608628D02*
X41373810Y-47608628D01*
X42373810Y-48084819D02*
X42373810Y-47084819D01*
X43373809Y-47132438D02*
X43278571Y-47084819D01*
X43278571Y-47084819D02*
X43135714Y-47084819D01*
X43135714Y-47084819D02*
X42992857Y-47132438D01*
X42992857Y-47132438D02*
X42897619Y-47227676D01*
X42897619Y-47227676D02*
X42850000Y-47322914D01*
X42850000Y-47322914D02*
X42802381Y-47513390D01*
X42802381Y-47513390D02*
X42802381Y-47656247D01*
X42802381Y-47656247D02*
X42850000Y-47846723D01*
X42850000Y-47846723D02*
X42897619Y-47941961D01*
X42897619Y-47941961D02*
X42992857Y-48037200D01*
X42992857Y-48037200D02*
X43135714Y-48084819D01*
X43135714Y-48084819D02*
X43230952Y-48084819D01*
X43230952Y-48084819D02*
X43373809Y-48037200D01*
X43373809Y-48037200D02*
X43421428Y-47989580D01*
X43421428Y-47989580D02*
X43421428Y-47656247D01*
X43421428Y-47656247D02*
X43230952Y-47656247D01*
X43850000Y-48084819D02*
X43850000Y-47084819D01*
X43850000Y-47561009D02*
X44421428Y-47561009D01*
X44421428Y-48084819D02*
X44421428Y-47084819D01*
X44754762Y-47084819D02*
X45326190Y-47084819D01*
X45040476Y-48084819D02*
X45040476Y-47084819D01*
X97183333Y-47747200D02*
X97326190Y-47794819D01*
X97326190Y-47794819D02*
X97564285Y-47794819D01*
X97564285Y-47794819D02*
X97659523Y-47747200D01*
X97659523Y-47747200D02*
X97707142Y-47699580D01*
X97707142Y-47699580D02*
X97754761Y-47604342D01*
X97754761Y-47604342D02*
X97754761Y-47509104D01*
X97754761Y-47509104D02*
X97707142Y-47413866D01*
X97707142Y-47413866D02*
X97659523Y-47366247D01*
X97659523Y-47366247D02*
X97564285Y-47318628D01*
X97564285Y-47318628D02*
X97373809Y-47271009D01*
X97373809Y-47271009D02*
X97278571Y-47223390D01*
X97278571Y-47223390D02*
X97230952Y-47175771D01*
X97230952Y-47175771D02*
X97183333Y-47080533D01*
X97183333Y-47080533D02*
X97183333Y-46985295D01*
X97183333Y-46985295D02*
X97230952Y-46890057D01*
X97230952Y-46890057D02*
X97278571Y-46842438D01*
X97278571Y-46842438D02*
X97373809Y-46794819D01*
X97373809Y-46794819D02*
X97611904Y-46794819D01*
X97611904Y-46794819D02*
X97754761Y-46842438D01*
X98088095Y-46794819D02*
X98326190Y-47794819D01*
X98326190Y-47794819D02*
X98516666Y-47080533D01*
X98516666Y-47080533D02*
X98707142Y-47794819D01*
X98707142Y-47794819D02*
X98945238Y-46794819D01*
X99088095Y-47890057D02*
X99849999Y-47890057D01*
X100040476Y-47509104D02*
X100516666Y-47509104D01*
X99945238Y-47794819D02*
X100278571Y-46794819D01*
X100278571Y-46794819D02*
X100611904Y-47794819D01*
X63953333Y-41741200D02*
X64096190Y-41788819D01*
X64096190Y-41788819D02*
X64334285Y-41788819D01*
X64334285Y-41788819D02*
X64429523Y-41741200D01*
X64429523Y-41741200D02*
X64477142Y-41693580D01*
X64477142Y-41693580D02*
X64524761Y-41598342D01*
X64524761Y-41598342D02*
X64524761Y-41503104D01*
X64524761Y-41503104D02*
X64477142Y-41407866D01*
X64477142Y-41407866D02*
X64429523Y-41360247D01*
X64429523Y-41360247D02*
X64334285Y-41312628D01*
X64334285Y-41312628D02*
X64143809Y-41265009D01*
X64143809Y-41265009D02*
X64048571Y-41217390D01*
X64048571Y-41217390D02*
X64000952Y-41169771D01*
X64000952Y-41169771D02*
X63953333Y-41074533D01*
X63953333Y-41074533D02*
X63953333Y-40979295D01*
X63953333Y-40979295D02*
X64000952Y-40884057D01*
X64000952Y-40884057D02*
X64048571Y-40836438D01*
X64048571Y-40836438D02*
X64143809Y-40788819D01*
X64143809Y-40788819D02*
X64381904Y-40788819D01*
X64381904Y-40788819D02*
X64524761Y-40836438D01*
X64905714Y-41741200D02*
X65048571Y-41788819D01*
X65048571Y-41788819D02*
X65286666Y-41788819D01*
X65286666Y-41788819D02*
X65381904Y-41741200D01*
X65381904Y-41741200D02*
X65429523Y-41693580D01*
X65429523Y-41693580D02*
X65477142Y-41598342D01*
X65477142Y-41598342D02*
X65477142Y-41503104D01*
X65477142Y-41503104D02*
X65429523Y-41407866D01*
X65429523Y-41407866D02*
X65381904Y-41360247D01*
X65381904Y-41360247D02*
X65286666Y-41312628D01*
X65286666Y-41312628D02*
X65096190Y-41265009D01*
X65096190Y-41265009D02*
X65000952Y-41217390D01*
X65000952Y-41217390D02*
X64953333Y-41169771D01*
X64953333Y-41169771D02*
X64905714Y-41074533D01*
X64905714Y-41074533D02*
X64905714Y-40979295D01*
X64905714Y-40979295D02*
X64953333Y-40884057D01*
X64953333Y-40884057D02*
X65000952Y-40836438D01*
X65000952Y-40836438D02*
X65096190Y-40788819D01*
X65096190Y-40788819D02*
X65334285Y-40788819D01*
X65334285Y-40788819D02*
X65477142Y-40836438D01*
X65905714Y-41788819D02*
X65905714Y-40788819D01*
X65905714Y-40788819D02*
X66143809Y-40788819D01*
X66143809Y-40788819D02*
X66286666Y-40836438D01*
X66286666Y-40836438D02*
X66381904Y-40931676D01*
X66381904Y-40931676D02*
X66429523Y-41026914D01*
X66429523Y-41026914D02*
X66477142Y-41217390D01*
X66477142Y-41217390D02*
X66477142Y-41360247D01*
X66477142Y-41360247D02*
X66429523Y-41550723D01*
X66429523Y-41550723D02*
X66381904Y-41645961D01*
X66381904Y-41645961D02*
X66286666Y-41741200D01*
X66286666Y-41741200D02*
X66143809Y-41788819D01*
X66143809Y-41788819D02*
X65905714Y-41788819D01*
X67429523Y-41788819D02*
X66858095Y-41788819D01*
X67143809Y-41788819D02*
X67143809Y-40788819D01*
X67143809Y-40788819D02*
X67048571Y-40931676D01*
X67048571Y-40931676D02*
X66953333Y-41026914D01*
X66953333Y-41026914D02*
X66858095Y-41074533D01*
X67762857Y-40788819D02*
X68381904Y-40788819D01*
X68381904Y-40788819D02*
X68048571Y-41169771D01*
X68048571Y-41169771D02*
X68191428Y-41169771D01*
X68191428Y-41169771D02*
X68286666Y-41217390D01*
X68286666Y-41217390D02*
X68334285Y-41265009D01*
X68334285Y-41265009D02*
X68381904Y-41360247D01*
X68381904Y-41360247D02*
X68381904Y-41598342D01*
X68381904Y-41598342D02*
X68334285Y-41693580D01*
X68334285Y-41693580D02*
X68286666Y-41741200D01*
X68286666Y-41741200D02*
X68191428Y-41788819D01*
X68191428Y-41788819D02*
X67905714Y-41788819D01*
X67905714Y-41788819D02*
X67810476Y-41741200D01*
X67810476Y-41741200D02*
X67762857Y-41693580D01*
X69000952Y-40788819D02*
X69096190Y-40788819D01*
X69096190Y-40788819D02*
X69191428Y-40836438D01*
X69191428Y-40836438D02*
X69239047Y-40884057D01*
X69239047Y-40884057D02*
X69286666Y-40979295D01*
X69286666Y-40979295D02*
X69334285Y-41169771D01*
X69334285Y-41169771D02*
X69334285Y-41407866D01*
X69334285Y-41407866D02*
X69286666Y-41598342D01*
X69286666Y-41598342D02*
X69239047Y-41693580D01*
X69239047Y-41693580D02*
X69191428Y-41741200D01*
X69191428Y-41741200D02*
X69096190Y-41788819D01*
X69096190Y-41788819D02*
X69000952Y-41788819D01*
X69000952Y-41788819D02*
X68905714Y-41741200D01*
X68905714Y-41741200D02*
X68858095Y-41693580D01*
X68858095Y-41693580D02*
X68810476Y-41598342D01*
X68810476Y-41598342D02*
X68762857Y-41407866D01*
X68762857Y-41407866D02*
X68762857Y-41169771D01*
X68762857Y-41169771D02*
X68810476Y-40979295D01*
X68810476Y-40979295D02*
X68858095Y-40884057D01*
X68858095Y-40884057D02*
X68905714Y-40836438D01*
X68905714Y-40836438D02*
X69000952Y-40788819D01*
X70191428Y-40788819D02*
X70000952Y-40788819D01*
X70000952Y-40788819D02*
X69905714Y-40836438D01*
X69905714Y-40836438D02*
X69858095Y-40884057D01*
X69858095Y-40884057D02*
X69762857Y-41026914D01*
X69762857Y-41026914D02*
X69715238Y-41217390D01*
X69715238Y-41217390D02*
X69715238Y-41598342D01*
X69715238Y-41598342D02*
X69762857Y-41693580D01*
X69762857Y-41693580D02*
X69810476Y-41741200D01*
X69810476Y-41741200D02*
X69905714Y-41788819D01*
X69905714Y-41788819D02*
X70096190Y-41788819D01*
X70096190Y-41788819D02*
X70191428Y-41741200D01*
X70191428Y-41741200D02*
X70239047Y-41693580D01*
X70239047Y-41693580D02*
X70286666Y-41598342D01*
X70286666Y-41598342D02*
X70286666Y-41360247D01*
X70286666Y-41360247D02*
X70239047Y-41265009D01*
X70239047Y-41265009D02*
X70191428Y-41217390D01*
X70191428Y-41217390D02*
X70096190Y-41169771D01*
X70096190Y-41169771D02*
X69905714Y-41169771D01*
X69905714Y-41169771D02*
X69810476Y-41217390D01*
X69810476Y-41217390D02*
X69762857Y-41265009D01*
X69762857Y-41265009D02*
X69715238Y-41360247D01*
X86320476Y-52624819D02*
X86939523Y-52624819D01*
X86939523Y-52624819D02*
X86606190Y-53005771D01*
X86606190Y-53005771D02*
X86749047Y-53005771D01*
X86749047Y-53005771D02*
X86844285Y-53053390D01*
X86844285Y-53053390D02*
X86891904Y-53101009D01*
X86891904Y-53101009D02*
X86939523Y-53196247D01*
X86939523Y-53196247D02*
X86939523Y-53434342D01*
X86939523Y-53434342D02*
X86891904Y-53529580D01*
X86891904Y-53529580D02*
X86844285Y-53577200D01*
X86844285Y-53577200D02*
X86749047Y-53624819D01*
X86749047Y-53624819D02*
X86463333Y-53624819D01*
X86463333Y-53624819D02*
X86368095Y-53577200D01*
X86368095Y-53577200D02*
X86320476Y-53529580D01*
X87272857Y-52624819D02*
X87891904Y-52624819D01*
X87891904Y-52624819D02*
X87558571Y-53005771D01*
X87558571Y-53005771D02*
X87701428Y-53005771D01*
X87701428Y-53005771D02*
X87796666Y-53053390D01*
X87796666Y-53053390D02*
X87844285Y-53101009D01*
X87844285Y-53101009D02*
X87891904Y-53196247D01*
X87891904Y-53196247D02*
X87891904Y-53434342D01*
X87891904Y-53434342D02*
X87844285Y-53529580D01*
X87844285Y-53529580D02*
X87796666Y-53577200D01*
X87796666Y-53577200D02*
X87701428Y-53624819D01*
X87701428Y-53624819D02*
X87415714Y-53624819D01*
X87415714Y-53624819D02*
X87320476Y-53577200D01*
X87320476Y-53577200D02*
X87272857Y-53529580D01*
X88320476Y-53624819D02*
X88320476Y-52624819D01*
X88891904Y-53624819D02*
X88463333Y-53053390D01*
X88891904Y-52624819D02*
X88320476Y-53196247D01*
D11*
%TO.C,R7*%
X32290000Y-57050000D02*
X38830000Y-57050000D01*
X32290000Y-57380000D02*
X32290000Y-57050000D01*
X32290000Y-59460000D02*
X32290000Y-59790000D01*
X32290000Y-59790000D02*
X38830000Y-59790000D01*
X38830000Y-57050000D02*
X38830000Y-57380000D01*
X38830000Y-59790000D02*
X38830000Y-59460000D01*
%TO.C,R6*%
X95790000Y-54510000D02*
X102330000Y-54510000D01*
X95790000Y-54840000D02*
X95790000Y-54510000D01*
X95790000Y-56920000D02*
X95790000Y-57250000D01*
X95790000Y-57250000D02*
X102330000Y-57250000D01*
X102330000Y-54510000D02*
X102330000Y-54840000D01*
X102330000Y-57250000D02*
X102330000Y-56920000D01*
%TO.C,R5*%
X43720000Y-57050000D02*
X50260000Y-57050000D01*
X43720000Y-57380000D02*
X43720000Y-57050000D01*
X43720000Y-59460000D02*
X43720000Y-59790000D01*
X43720000Y-59790000D02*
X50260000Y-59790000D01*
X50260000Y-57050000D02*
X50260000Y-57380000D01*
X50260000Y-59790000D02*
X50260000Y-59460000D01*
%TO.C,R4*%
X84360000Y-54510000D02*
X90900000Y-54510000D01*
X84360000Y-54840000D02*
X84360000Y-54510000D01*
X84360000Y-56920000D02*
X84360000Y-57250000D01*
X84360000Y-57250000D02*
X90900000Y-57250000D01*
X90900000Y-54510000D02*
X90900000Y-54840000D01*
X90900000Y-57250000D02*
X90900000Y-56920000D01*
%TO.C,R3*%
X43720000Y-51970000D02*
X50260000Y-51970000D01*
X43720000Y-52300000D02*
X43720000Y-51970000D01*
X43720000Y-54380000D02*
X43720000Y-54710000D01*
X43720000Y-54710000D02*
X50260000Y-54710000D01*
X50260000Y-51970000D02*
X50260000Y-52300000D01*
X50260000Y-54710000D02*
X50260000Y-54380000D01*
%TO.C,R2*%
X95790000Y-49430000D02*
X102330000Y-49430000D01*
X95790000Y-49760000D02*
X95790000Y-49430000D01*
X95790000Y-51840000D02*
X95790000Y-52170000D01*
X95790000Y-52170000D02*
X102330000Y-52170000D01*
X102330000Y-49430000D02*
X102330000Y-49760000D01*
X102330000Y-52170000D02*
X102330000Y-51840000D01*
%TO.C,SW3*%
X26270000Y-42430000D02*
X26270000Y-43930000D01*
X27520000Y-46430000D02*
X32020000Y-46430000D01*
X32020000Y-39930000D02*
X27520000Y-39930000D01*
X33270000Y-43930000D02*
X33270000Y-42430000D01*
%TO.C,SW1*%
X32060000Y-34810000D02*
X32060000Y-36310000D01*
X33310000Y-38810000D02*
X37810000Y-38810000D01*
X37810000Y-32310000D02*
X33310000Y-32310000D01*
X39060000Y-36310000D02*
X39060000Y-34810000D01*
%TO.C,SW2*%
X32060000Y-50050000D02*
X32060000Y-51550000D01*
X33310000Y-54050000D02*
X37810000Y-54050000D01*
X37810000Y-47550000D02*
X33310000Y-47550000D01*
X39060000Y-51550000D02*
X39060000Y-50050000D01*
%TO.C,D1*%
X83530000Y-24164000D02*
X83530000Y-24320000D01*
X83530000Y-26480000D02*
X83530000Y-26636000D01*
X83530000Y-24164484D02*
G75*
G02*
X86762335Y-24321392I1560000J-1235516D01*
G01*
X84049039Y-24320000D02*
G75*
G02*
X86131130Y-24320163I1040961J-1080000D01*
G01*
X86131130Y-26479837D02*
G75*
G02*
X84049039Y-26480000I-1041130J1079837D01*
G01*
X86762335Y-26478608D02*
G75*
G02*
X83530000Y-26635516I-1672335J1078608D01*
G01*
%TO.C,Attiny85*%
X40590000Y-22740000D02*
X40590000Y-24390000D01*
X40590000Y-26390000D02*
X40590000Y-28040000D01*
X40590000Y-28040000D02*
X50870000Y-28040000D01*
X50870000Y-22740000D02*
X40590000Y-22740000D01*
X50870000Y-28040000D02*
X50870000Y-22740000D01*
X40590000Y-24390000D02*
G75*
G02*
X40590000Y-26390000I0J-1000000D01*
G01*
%TO.C,BZ1*%
X102620000Y-25400000D02*
G75*
G02*
X90420000Y-25400000I-6100000J0D01*
G01*
X90420000Y-25400000D02*
G75*
G02*
X102620000Y-25400000I6100000J0D01*
G01*
%TO.C,SW5*%
X37850000Y-42430000D02*
X37850000Y-43930000D01*
X39100000Y-46430000D02*
X43600000Y-46430000D01*
X43600000Y-39930000D02*
X39100000Y-39930000D01*
X44850000Y-43930000D02*
X44850000Y-42430000D01*
%TO.C,J2*%
X26610000Y-29270000D02*
X26610000Y-27940000D01*
X27940000Y-29270000D02*
X26610000Y-29270000D01*
X29210000Y-29270000D02*
X34350000Y-29270000D01*
X29210000Y-29270000D02*
X29210000Y-26670000D01*
X34350000Y-29270000D02*
X34350000Y-24070000D01*
X26610000Y-26670000D02*
X26610000Y-24070000D01*
X29210000Y-26670000D02*
X26610000Y-26670000D01*
X26610000Y-24070000D02*
X34350000Y-24070000D01*
%TO.C,POWER1*%
X69020000Y-63260000D02*
X71320000Y-63260000D01*
X62720000Y-63260000D02*
X64920000Y-63260000D01*
X62720000Y-58660000D02*
X71320000Y-58660000D01*
%TO.C,SW7*%
X94850000Y-42140000D02*
X94850000Y-43640000D01*
X96100000Y-46140000D02*
X100600000Y-46140000D01*
X100600000Y-39640000D02*
X96100000Y-39640000D01*
X101850000Y-43640000D02*
X101850000Y-42140000D01*
%TO.C,SSD1306*%
X53720000Y-28780000D02*
X81120000Y-28780000D01*
X53720000Y-56080000D02*
X53720000Y-28780000D01*
X54142000Y-32075000D02*
X77242000Y-32075000D01*
X54142000Y-48675000D02*
X54142000Y-32075000D01*
X62421000Y-29269000D02*
X62421000Y-31682000D01*
X62421000Y-29269000D02*
X72200000Y-29269000D01*
X72200000Y-29269000D02*
X72200000Y-31682000D01*
X72200000Y-31682000D02*
X62421000Y-31682000D01*
X77242000Y-32075000D02*
X80328000Y-32075000D01*
X77242000Y-48675000D02*
X54142000Y-48675000D01*
X77242000Y-48675000D02*
X80582000Y-48700000D01*
X80582000Y-32063000D02*
X80328000Y-32075000D01*
X80582000Y-48700000D02*
X80582000Y-32063000D01*
X81120000Y-28780000D02*
X81120000Y-56080000D01*
X81120000Y-56080000D02*
X53720000Y-56080000D01*
%TO.C,33K1*%
X84360000Y-49430000D02*
X90900000Y-49430000D01*
X84360000Y-49760000D02*
X84360000Y-49430000D01*
X84360000Y-51840000D02*
X84360000Y-52170000D01*
X84360000Y-52170000D02*
X90900000Y-52170000D01*
X90900000Y-49430000D02*
X90900000Y-49760000D01*
X90900000Y-52170000D02*
X90900000Y-51840000D01*
%TD*%
M02*
