%TF.GenerationSoftware,KiCad,Pcbnew,8.0.3*%
%TF.CreationDate,2024-06-30T11:32:45+09:00*%
%TF.ProjectId,gamepad_attiny85,67616d65-7061-4645-9f61-7474696e7938,rev?*%
%TF.SameCoordinates,Original*%
%TF.FileFunction,Copper,L1,Top*%
%TF.FilePolarity,Positive*%
%FSLAX46Y46*%
G04 Gerber Fmt 4.6, Leading zero omitted, Abs format (unit mm)*
G04 Created by KiCad (PCBNEW 8.0.3) date 2024-06-30 11:32:45*
%MOMM*%
%LPD*%
G01*
G04 APERTURE LIST*
%TA.AperFunction,ComponentPad*%
%ADD10C,1.600000*%
%TD*%
%TA.AperFunction,ComponentPad*%
%ADD11O,1.600000X1.600000*%
%TD*%
%TA.AperFunction,ComponentPad*%
%ADD12C,2.000000*%
%TD*%
%TA.AperFunction,ComponentPad*%
%ADD13R,1.800000X1.800000*%
%TD*%
%TA.AperFunction,ComponentPad*%
%ADD14C,1.800000*%
%TD*%
%TA.AperFunction,ComponentPad*%
%ADD15R,1.600000X1.600000*%
%TD*%
%TA.AperFunction,ComponentPad*%
%ADD16R,2.000000X2.000000*%
%TD*%
%TA.AperFunction,ComponentPad*%
%ADD17R,1.700000X1.700000*%
%TD*%
%TA.AperFunction,ComponentPad*%
%ADD18O,1.700000X1.700000*%
%TD*%
%TA.AperFunction,ComponentPad*%
%ADD19O,1.500000X2.500000*%
%TD*%
%TA.AperFunction,ComponentPad*%
%ADD20R,1.500000X2.500000*%
%TD*%
%TA.AperFunction,ComponentPad*%
%ADD21O,2.200000X3.500000*%
%TD*%
%TA.AperFunction,ComponentPad*%
%ADD22O,1.600000X2.000000*%
%TD*%
%TA.AperFunction,Conductor*%
%ADD23C,0.250000*%
%TD*%
G04 APERTURE END LIST*
D10*
%TO.P,R7,1*%
%TO.N,+3.3V*%
X31750000Y-58420000D03*
D11*
%TO.P,R7,2*%
%TO.N,Net-(Attiny85-PB1)*%
X39370000Y-58420000D03*
%TD*%
D10*
%TO.P,R6,1*%
%TO.N,Net-(Attiny85-~{RESET}{slash}PB5)*%
X95250000Y-55880000D03*
D11*
%TO.P,R6,2*%
%TO.N,Net-(R6-Pad2)*%
X102870000Y-55880000D03*
%TD*%
D10*
%TO.P,R5,1*%
%TO.N,+3.3V*%
X43180000Y-58420000D03*
D11*
%TO.P,R5,2*%
%TO.N,Net-(Attiny85-~{RESET}{slash}PB5)*%
X50800000Y-58420000D03*
%TD*%
D10*
%TO.P,R4,1*%
%TO.N,Net-(Attiny85-~{RESET}{slash}PB5)*%
X83820000Y-55880000D03*
D11*
%TO.P,R4,2*%
%TO.N,Net-(R4-Pad2)*%
X91440000Y-55880000D03*
%TD*%
D10*
%TO.P,R3,1*%
%TO.N,+3.3V*%
X43180000Y-53340000D03*
D11*
%TO.P,R3,2*%
%TO.N,Net-(Attiny85-XTAL1{slash}PB3)*%
X50800000Y-53340000D03*
%TD*%
D10*
%TO.P,R2,1*%
%TO.N,Net-(Attiny85-XTAL1{slash}PB3)*%
X95250000Y-50800000D03*
D11*
%TO.P,R2,2*%
%TO.N,Net-(R2-Pad2)*%
X102870000Y-50800000D03*
%TD*%
D12*
%TO.P,SW3,1,1*%
%TO.N,GND*%
X26520000Y-40930000D03*
X33020000Y-40930000D03*
%TO.P,SW3,2,2*%
%TO.N,Net-(R4-Pad2)*%
X26520000Y-45430000D03*
X33020000Y-45430000D03*
%TD*%
%TO.P,SW1,1,1*%
%TO.N,GND*%
X32310000Y-33310000D03*
X38810000Y-33310000D03*
%TO.P,SW1,2,2*%
%TO.N,Net-(33K1-Pad2)*%
X32310000Y-37810000D03*
X38810000Y-37810000D03*
%TD*%
%TO.P,SW2,1,1*%
%TO.N,Net-(R2-Pad2)*%
X32310000Y-48550000D03*
X38810000Y-48550000D03*
%TO.P,SW2,2,2*%
%TO.N,GND*%
X32310000Y-53050000D03*
X38810000Y-53050000D03*
%TD*%
D13*
%TO.P,D1,1,K*%
%TO.N,GND*%
X83820000Y-25400000D03*
D14*
%TO.P,D1,2,A*%
%TO.N,+3.3V*%
X86360000Y-25400000D03*
%TD*%
D15*
%TO.P,Attiny85,1,~{RESET}/PB5*%
%TO.N,Net-(Attiny85-~{RESET}{slash}PB5)*%
X41920000Y-29200000D03*
D11*
%TO.P,Attiny85,2,XTAL1/PB3*%
%TO.N,Net-(Attiny85-XTAL1{slash}PB3)*%
X44460000Y-29200000D03*
%TO.P,Attiny85,3,XTAL2/PB4*%
%TO.N,Net-(Attiny85-XTAL2{slash}PB4)*%
X47000000Y-29200000D03*
%TO.P,Attiny85,4,GND*%
%TO.N,GND*%
X49540000Y-29200000D03*
%TO.P,Attiny85,5,AREF/PB0*%
%TO.N,Net-(Attiny85-AREF{slash}PB0)*%
X49540000Y-21580000D03*
%TO.P,Attiny85,6,PB1*%
%TO.N,Net-(Attiny85-PB1)*%
X47000000Y-21580000D03*
%TO.P,Attiny85,7,PB2*%
%TO.N,Net-(Attiny85-PB2)*%
X44460000Y-21580000D03*
%TO.P,Attiny85,8,VCC*%
%TO.N,+3.3V*%
X41920000Y-21580000D03*
%TD*%
D16*
%TO.P,BZ1,1,-*%
%TO.N,Net-(Attiny85-XTAL2{slash}PB4)*%
X92720000Y-25400000D03*
D12*
%TO.P,BZ1,2,+*%
%TO.N,GND*%
X100320000Y-25400000D03*
%TD*%
%TO.P,SW5,1,1*%
%TO.N,Net-(R6-Pad2)*%
X38100000Y-40930000D03*
X44600000Y-40930000D03*
%TO.P,SW5,2,2*%
%TO.N,GND*%
X38100000Y-45430000D03*
X44600000Y-45430000D03*
%TD*%
D17*
%TO.P,J2,1,Pin_1*%
%TO.N,Net-(Attiny85-PB1)*%
X27940000Y-27940000D03*
D18*
%TO.P,J2,2,Pin_2*%
%TO.N,+3.3V*%
X27940000Y-25400000D03*
%TO.P,J2,3,Pin_3*%
%TO.N,Net-(Attiny85-PB2)*%
X30480000Y-27940000D03*
%TO.P,J2,4,Pin_4*%
%TO.N,Net-(Attiny85-AREF{slash}PB0)*%
X30480000Y-25400000D03*
%TO.P,J2,5,Pin_5*%
%TO.N,Net-(Attiny85-~{RESET}{slash}PB5)*%
X33020000Y-27940000D03*
%TO.P,J2,6,Pin_6*%
%TO.N,GND*%
X33020000Y-25400000D03*
%TD*%
D19*
%TO.P,POWER1,3*%
%TO.N,N/C*%
X69020000Y-60960000D03*
%TO.P,POWER1,2,B*%
%TO.N,+3.3V*%
X67020000Y-60960000D03*
D20*
%TO.P,POWER1,1,A*%
%TO.N,Net-(BT1-+)*%
X65020000Y-60960000D03*
D21*
%TO.P,POWER1,*%
%TO.N,*%
X71120000Y-60960000D03*
X62920000Y-60960000D03*
%TD*%
D12*
%TO.P,SW7,1,1*%
%TO.N,Net-(Attiny85-PB1)*%
X95100000Y-40640000D03*
X101600000Y-40640000D03*
%TO.P,SW7,2,2*%
%TO.N,GND*%
X95100000Y-45140000D03*
X101600000Y-45140000D03*
%TD*%
D22*
%TO.P,SSD1306,1,GND*%
%TO.N,GND*%
X63500000Y-30480000D03*
%TO.P,SSD1306,2,VCC*%
%TO.N,+3.3V*%
X66040000Y-30480000D03*
%TO.P,SSD1306,3,SCL*%
%TO.N,Net-(Attiny85-PB2)*%
X68580000Y-30480000D03*
%TO.P,SSD1306,4,SDA*%
%TO.N,Net-(Attiny85-AREF{slash}PB0)*%
X71120000Y-30480000D03*
%TD*%
D10*
%TO.P,33K1,1*%
%TO.N,Net-(Attiny85-XTAL1{slash}PB3)*%
X83820000Y-50800000D03*
D11*
%TO.P,33K1,2*%
%TO.N,Net-(33K1-Pad2)*%
X91440000Y-50800000D03*
%TD*%
D23*
%TO.N,GND*%
X101600000Y-45140000D02*
X95100000Y-45140000D01*
%TO.N,+3.3V*%
X37830000Y-22860000D02*
X30480000Y-22860000D01*
X43180000Y-28210000D02*
X37830000Y-22860000D01*
X43180000Y-53340000D02*
X43180000Y-28210000D01*
X30480000Y-22860000D02*
X27940000Y-25400000D01*
%TO.N,Net-(Attiny85-XTAL1{slash}PB3)*%
X50800000Y-35540000D02*
X44460000Y-29200000D01*
X50800000Y-53340000D02*
X50800000Y-35540000D01*
%TO.N,+3.3V*%
X31750000Y-59400000D02*
X31605000Y-59545000D01*
X31750000Y-58420000D02*
X31750000Y-59400000D01*
%TO.N,Net-(Attiny85-PB1)*%
X26765000Y-26765000D02*
X27940000Y-27940000D01*
X26765000Y-24913299D02*
X26765000Y-26765000D01*
X45875000Y-20455000D02*
X31223299Y-20455000D01*
X47000000Y-21580000D02*
X45875000Y-20455000D01*
X31223299Y-20455000D02*
X26765000Y-24913299D01*
%TO.N,+3.3V*%
X58715000Y-23155000D02*
X43495000Y-23155000D01*
X43495000Y-23155000D02*
X41920000Y-21580000D01*
X66040000Y-30480000D02*
X58715000Y-23155000D01*
%TO.N,Net-(Attiny85-PB2)*%
X45585000Y-22705000D02*
X44460000Y-21580000D01*
X60805000Y-22705000D02*
X45585000Y-22705000D01*
X68580000Y-30480000D02*
X60805000Y-22705000D01*
%TO.N,Net-(Attiny85-AREF{slash}PB0)*%
X62220000Y-21580000D02*
X49540000Y-21580000D01*
X71120000Y-30480000D02*
X62220000Y-21580000D01*
%TO.N,Net-(Attiny85-XTAL2{slash}PB4)*%
X50820000Y-33020000D02*
X47000000Y-29200000D01*
X85100000Y-33020000D02*
X50820000Y-33020000D01*
X92720000Y-25400000D02*
X85100000Y-33020000D01*
%TO.N,Net-(Attiny85-PB1)*%
X93980000Y-20320000D02*
X48260000Y-20320000D01*
X98995000Y-25335000D02*
X93980000Y-20320000D01*
X95100000Y-40640000D02*
X98995000Y-36745000D01*
X98995000Y-36745000D02*
X98995000Y-25335000D01*
X48260000Y-20320000D02*
X47000000Y-21580000D01*
%TO.N,Net-(Attiny85-XTAL1{slash}PB3)*%
X55880000Y-50800000D02*
X83820000Y-50800000D01*
X53340000Y-53340000D02*
X55880000Y-50800000D01*
X50800000Y-53340000D02*
X53340000Y-53340000D01*
%TO.N,Net-(Attiny85-~{RESET}{slash}PB5)*%
X53340000Y-58420000D02*
X55880000Y-55880000D01*
X50800000Y-58420000D02*
X53340000Y-58420000D01*
X55880000Y-55880000D02*
X83820000Y-55880000D01*
%TO.N,+3.3V*%
X42055000Y-59545000D02*
X31605000Y-59545000D01*
X43180000Y-58420000D02*
X42055000Y-59545000D01*
X43180000Y-53340000D02*
X43180000Y-54015000D01*
X44305000Y-59545000D02*
X43180000Y-58420000D01*
X52090000Y-59545000D02*
X44305000Y-59545000D01*
X67020000Y-60460000D02*
X65445000Y-58885000D01*
X52750000Y-58885000D02*
X52090000Y-59545000D01*
X67020000Y-60960000D02*
X67020000Y-60460000D01*
X65445000Y-58885000D02*
X52750000Y-58885000D01*
%TO.N,Net-(Attiny85-PB1)*%
X39370000Y-58236167D02*
X39370000Y-58420000D01*
X27940000Y-46806167D02*
X39370000Y-58236167D01*
X27940000Y-27940000D02*
X27940000Y-46806167D01*
%TO.N,+3.3V*%
X36925000Y-26575000D02*
X41920000Y-21580000D01*
X29115000Y-26575000D02*
X36925000Y-26575000D01*
X27940000Y-25400000D02*
X29115000Y-26575000D01*
%TO.N,Net-(Attiny85-~{RESET}{slash}PB5)*%
X36820000Y-29200000D02*
X41920000Y-29200000D01*
X35560000Y-27940000D02*
X36820000Y-29200000D01*
X33020000Y-27940000D02*
X35560000Y-27940000D01*
X41920000Y-39360000D02*
X41920000Y-29200000D01*
X30985000Y-48001167D02*
X31761167Y-47225000D01*
X30985000Y-49098833D02*
X30985000Y-48001167D01*
X36801167Y-54915000D02*
X30985000Y-49098833D01*
X31761167Y-47225000D02*
X34055000Y-47225000D01*
X34055000Y-47225000D02*
X41920000Y-39360000D01*
X47295000Y-54915000D02*
X36801167Y-54915000D01*
X50800000Y-58420000D02*
X47295000Y-54915000D01*
%TO.N,Net-(R2-Pad2)*%
X32310000Y-48550000D02*
X38810000Y-48550000D01*
X38810000Y-51176167D02*
X38810000Y-48550000D01*
X42098833Y-54465000D02*
X38810000Y-51176167D01*
X102870000Y-50800000D02*
X99205000Y-54465000D01*
X99205000Y-54465000D02*
X42098833Y-54465000D01*
%TO.N,Net-(Attiny85-XTAL1{slash}PB3)*%
X94125000Y-51925000D02*
X84945000Y-51925000D01*
X84945000Y-51925000D02*
X83820000Y-50800000D01*
X95250000Y-50800000D02*
X94125000Y-51925000D01*
%TO.N,Net-(Attiny85-PB1)*%
X95100000Y-40640000D02*
X101600000Y-40640000D01*
%TO.N,GND*%
X102925000Y-43815000D02*
X101600000Y-45140000D01*
X102925000Y-28005000D02*
X102925000Y-43815000D01*
X100320000Y-25400000D02*
X102925000Y-28005000D01*
%TD*%
M02*
