%TF.GenerationSoftware,KiCad,Pcbnew,8.0.3*%
%TF.CreationDate,2024-06-30T11:32:45+09:00*%
%TF.ProjectId,gamepad_attiny85,67616d65-7061-4645-9f61-7474696e7938,rev?*%
%TF.SameCoordinates,Original*%
%TF.FileFunction,Legend,Bot*%
%TF.FilePolarity,Positive*%
%FSLAX46Y46*%
G04 Gerber Fmt 4.6, Leading zero omitted, Abs format (unit mm)*
G04 Created by KiCad (PCBNEW 8.0.3) date 2024-06-30 11:32:45*
%MOMM*%
%LPD*%
G01*
G04 APERTURE LIST*
%ADD10C,0.150000*%
%ADD11C,0.120000*%
G04 APERTURE END LIST*
D10*
X69365714Y-36651009D02*
X69222857Y-36698628D01*
X69222857Y-36698628D02*
X69175238Y-36746247D01*
X69175238Y-36746247D02*
X69127619Y-36841485D01*
X69127619Y-36841485D02*
X69127619Y-36984342D01*
X69127619Y-36984342D02*
X69175238Y-37079580D01*
X69175238Y-37079580D02*
X69222857Y-37127200D01*
X69222857Y-37127200D02*
X69318095Y-37174819D01*
X69318095Y-37174819D02*
X69699047Y-37174819D01*
X69699047Y-37174819D02*
X69699047Y-36174819D01*
X69699047Y-36174819D02*
X69365714Y-36174819D01*
X69365714Y-36174819D02*
X69270476Y-36222438D01*
X69270476Y-36222438D02*
X69222857Y-36270057D01*
X69222857Y-36270057D02*
X69175238Y-36365295D01*
X69175238Y-36365295D02*
X69175238Y-36460533D01*
X69175238Y-36460533D02*
X69222857Y-36555771D01*
X69222857Y-36555771D02*
X69270476Y-36603390D01*
X69270476Y-36603390D02*
X69365714Y-36651009D01*
X69365714Y-36651009D02*
X69699047Y-36651009D01*
X68841904Y-36174819D02*
X68270476Y-36174819D01*
X68556190Y-37174819D02*
X68556190Y-36174819D01*
X67413333Y-37174819D02*
X67984761Y-37174819D01*
X67699047Y-37174819D02*
X67699047Y-36174819D01*
X67699047Y-36174819D02*
X67794285Y-36317676D01*
X67794285Y-36317676D02*
X67889523Y-36412914D01*
X67889523Y-36412914D02*
X67984761Y-36460533D01*
X84260951Y-43008866D02*
X83499047Y-43008866D01*
X83879999Y-43389819D02*
X83879999Y-42627914D01*
D11*
%TO.C,BT1*%
X79094300Y-42100000D02*
X82950000Y-42100000D01*
X82950000Y-42100000D02*
X82950000Y-43710000D01*
X82950000Y-47730000D02*
X82950000Y-49340000D01*
X82950000Y-49340000D02*
X79094300Y-49340000D01*
X61036400Y-37550000D02*
X76123600Y-37550000D01*
X76123600Y-53890000D02*
X61036400Y-53890000D01*
X54210000Y-42100000D02*
X58065700Y-42100000D01*
X54210000Y-43710000D02*
X54210000Y-42100000D01*
X54210000Y-49340000D02*
X54210000Y-47730000D01*
X58065700Y-49340000D02*
X54210000Y-49340000D01*
X76123600Y-37550000D02*
G75*
G02*
X79094302Y-42099999I-7605360J-8210340D01*
G01*
X79094300Y-49340000D02*
G75*
G02*
X76123598Y-53889998I-10576060J3660340D01*
G01*
X58065700Y-42100000D02*
G75*
G02*
X61036400Y-37550000I10576062J-3660336D01*
G01*
X61036400Y-53890000D02*
G75*
G02*
X58065700Y-49340000I7605362J8210336D01*
G01*
%TD*%
M02*
